<svg xmlns="http://www.w3.org/2000/svg" width="512" height="512" viewBox="0 0 512 512" version="1.1"><path d="M 343 128.066 C 323.787 130.937, 311.714 142.161, 297.049 170.783 C 293.750 177.222, 290.607 181.948, 288.641 183.427 C 286.913 184.726, 279.187 188.940, 271.471 192.790 C 257.682 199.672, 240.671 210.245, 237.906 213.651 C 236.341 215.579, 235.951 215.746, 243.500 211.268 C 247.069 209.152, 247.231 209.126, 245 211.034 C 243.625 212.210, 241.150 214.371, 239.500 215.836 C 237.850 217.301, 235.825 218.521, 235 218.547 C 234.175 218.572, 233.597 219.087, 233.715 219.691 C 233.833 220.294, 232.483 222.116, 230.715 223.739 C 217.745 235.645, 210.920 242.565, 205.309 249.500 C 199.122 257.148, 193.029 266.503, 193.009 268.387 C 193.004 268.874, 195.660 266.399, 198.910 262.887 C 203.393 258.043, 205.107 256.776, 206.003 257.643 C 208.027 259.599, 205.675 262.322, 191.319 274.637 C 174.803 288.806, 162.572 301.070, 155.433 310.623 C 152.068 315.125, 148.364 318.768, 145.368 320.525 C 142.760 322.053, 138.685 325.092, 136.313 327.279 C 132.529 330.767, 132 331.776, 132 335.505 C 132 338.049, 131.402 340.251, 130.511 340.991 C 129.692 341.671, 129.232 342.567, 129.490 342.983 C 129.968 343.757, 135.333 342.336, 144.839 338.919 C 153.579 335.777, 153.976 336.447, 147.405 343.250 C 144.084 346.688, 138.503 352.802, 135.003 356.838 C 130.598 361.916, 122.326 368.952, 108.132 379.694 C 81.956 399.504, 72.663 407.216, 61.444 418.440 C 51.156 428.732, 48.337 433.347, 50.411 436.500 C 52.321 439.403, 56.289 439.472, 62.327 436.708 C 67.578 434.304, 67.651 434.299, 69.996 436.198 C 71.864 437.710, 73.221 437.972, 76.431 437.437 C 84.427 436.107, 87.997 433.506, 112 411.518 C 130.672 394.414, 147.599 379.906, 156.803 373.118 C 168.523 364.474, 201.235 349.204, 211.500 347.584 C 214.193 347.159, 217.787 347.614, 222.497 348.976 C 232.852 351.971, 234.876 351.722, 239.803 346.844 C 242.111 344.559, 244 343.151, 244 343.717 C 244 344.282, 241.916 346.666, 239.369 349.014 C 235.088 352.960, 234.951 353.229, 237.558 352.575 C 239.109 352.186, 241.643 350.966, 243.189 349.865 C 244.735 348.765, 246 348.269, 246 348.764 C 246 349.259, 243.863 350.892, 241.250 352.393 L 236.500 355.122 241.750 354.708 C 244.637 354.480, 247 354.438, 247 354.615 C 247 354.792, 245.880 355.523, 244.510 356.241 L 242.020 357.545 247.260 360.943 C 257.729 367.731, 279.007 385.771, 278.997 387.849 C 278.995 388.207, 275.957 389.746, 272.247 391.270 C 268.520 392.800, 262.921 396.242, 259.739 398.960 C 255.399 402.667, 252.870 404.047, 249.489 404.554 C 246.551 404.994, 245 405.727, 245 406.673 C 245 407.468, 245.406 407.867, 245.901 407.561 C 247.343 406.670, 262.311 403.978, 262.847 404.514 C 263.114 404.781, 263.122 405.212, 262.863 405.470 C 262.604 405.729, 249.142 408.640, 232.946 411.939 C 204.573 417.719, 186.720 421.566, 158.018 428.087 C 150.603 429.771, 142.417 431.400, 139.828 431.707 C 136.405 432.112, 134.372 433.046, 132.373 435.132 C 128.822 438.839, 127.799 438.753, 128.186 434.780 C 128.415 432.431, 128.056 431.470, 126.861 431.228 C 125.691 430.991, 124.833 432.127, 123.861 435.198 C 122.854 438.380, 121.914 439.583, 120.250 439.820 C 117.654 440.188, 117.514 439.474, 119.500 436 C 120.286 434.625, 120.945 433.151, 120.965 432.724 C 121.023 431.452, 115.684 434.613, 113.094 437.385 C 111.375 439.225, 110.043 439.798, 108.426 439.392 C 106.331 438.866, 95.503 441.776, 90.230 444.281 C 88.604 445.053, 87.652 445.052, 86.877 444.277 C 85.603 443.003, 68.160 447.395, 56.696 451.877 C 52.738 453.425, 46.462 455.744, 42.750 457.030 C 39.037 458.317, 36 459.737, 36 460.185 C 36 461.319, 36.967 461.219, 42.591 459.499 C 50.145 457.188, 69.194 454.067, 82.499 452.959 C 96.570 451.788, 96.566 451.788, 113.796 447.818 C 124.771 445.289, 128.089 444.077, 132.796 440.879 C 136.322 438.484, 139.661 437.004, 141.540 437.002 C 143.212 437.001, 147.262 436.283, 150.540 435.407 C 153.818 434.530, 160.100 432.942, 164.500 431.878 C 168.900 430.814, 173.287 429.700, 174.250 429.404 C 175.213 429.108, 176 429.327, 176 429.892 C 176 431.017, 175.188 431.260, 154 436.497 C 146.025 438.468, 139 440.738, 138.390 441.541 C 137.779 442.343, 136.317 443, 135.140 443 C 133.963 443, 133 443.450, 133 444 C 133 444.550, 133.338 444.995, 133.750 444.989 C 135.618 444.962, 185.653 434.869, 195.500 432.533 C 223.483 425.894, 254.534 419.728, 278.998 415.951 C 293.896 413.651, 295 413.608, 295 415.325 C 295 416.225, 291.240 417.346, 283.250 418.828 C 276.788 420.026, 270.600 421.012, 269.500 421.018 C 267.836 421.029, 267.752 421.197, 269 422.021 C 269.859 422.588, 273.490 422.761, 277.500 422.426 L 284.500 421.842 276.687 429.525 C 272.390 433.750, 269.094 437.428, 269.363 437.696 C 269.632 437.965, 273.373 435.157, 277.676 431.455 C 284.918 425.226, 296.501 418.584, 298.250 419.658 C 298.663 419.911, 299 421.940, 299 424.166 C 299 427.194, 298.653 428.081, 297.622 427.685 C 294.581 426.518, 292.635 432.235, 295.200 434.800 C 296.732 436.332, 300.254 436.346, 301.773 434.827 C 302.670 433.930, 303.569 433.938, 305.596 434.862 C 311.073 437.357, 316.572 430.308, 315.758 421.834 C 315.328 417.361, 315.460 417, 317.524 417 C 320.029 417, 321.605 418.531, 322.156 421.500 C 322.615 423.973, 325.876 424.144, 327.371 421.774 C 328.199 420.461, 328.050 419.354, 326.745 417.146 L 325.031 414.244 327.857 413.679 C 335.224 412.205, 350.821 411.786, 354.394 412.965 C 357.854 414.107, 358.070 414.407, 357.453 417.215 C 356.543 421.356, 358.727 420.552, 362 415.539 C 364.274 412.057, 364.530 411.915, 364.835 413.971 C 365.019 415.214, 364.681 416.719, 364.085 417.315 C 362.548 418.852, 362.739 421.963, 364.410 422.604 C 366.553 423.426, 371.234 420.604, 377.782 414.542 C 381.034 411.530, 384.983 408.577, 386.557 407.978 C 388.131 407.380, 401.586 406.433, 416.459 405.873 C 444.879 404.804, 449.890 403.943, 452.138 399.743 C 453.857 396.530, 452.444 394.979, 447.777 394.956 C 445.425 394.944, 430.574 394.611, 414.775 394.217 L 386.050 393.500 379.250 386.750 L 372.450 380 366.590 380 C 361.554 380, 360.388 380.368, 358.305 382.616 C 356.116 384.978, 355.321 385.191, 350.118 384.815 C 346.027 384.519, 342.943 383.542, 339.488 381.449 C 336.811 379.827, 329.970 375.779, 324.287 372.452 C 309.920 364.044, 307.795 362.042, 308.188 357.285 C 308.498 353.518, 308.559 353.470, 320.740 347.317 C 337.409 338.896, 346.777 332.277, 358 320.988 C 369.428 309.494, 377.358 298.600, 384.428 284.687 C 397.894 258.185, 401.444 238.910, 397.406 214.239 C 395.386 201.906, 396.048 194.034, 399.843 185.254 C 401.449 181.539, 403.064 176.799, 403.432 174.719 C 403.945 171.828, 405.066 170.240, 408.201 167.969 C 410.456 166.336, 412.850 165, 413.521 165 C 415.398 165, 436.275 158.459, 438.925 157.040 C 440.778 156.048, 440.980 155.601, 439.885 154.908 C 439.123 154.425, 438.950 154.006, 439.500 153.975 C 440.050 153.945, 439.290 153.263, 437.810 152.460 C 433.386 150.057, 422.099 147.833, 412.242 147.421 L 402.984 147.035 397.082 141.003 C 387.499 131.209, 375.576 126.915, 358.540 127.122 C 353.018 127.189, 346.025 127.614, 343 128.066 M 337.760 134.558 C 331.071 136.179, 325.536 138.837, 321.134 142.541 C 316.459 146.474, 317.349 147.540, 322.750 144.479 C 325.363 142.998, 330.200 140.756, 333.500 139.498 C 336.800 138.239, 339.275 136.825, 339 136.355 C 338.222 135.024, 351.529 133.917, 361.500 134.482 C 367.414 134.817, 369.814 134.674, 368.500 134.066 C 365.439 132.650, 344.234 132.989, 337.760 134.558 M 382.976 134.706 C 384.338 135.693, 387.038 137.830, 388.976 139.455 L 392.500 142.410 389.795 139.447 C 388.307 137.818, 385.607 135.681, 383.795 134.699 C 380.622 132.979, 380.592 132.979, 382.976 134.706 M 342 149.542 C 321.049 152.871, 313.072 157.478, 306.962 169.778 C 305.246 173.231, 302.532 177.025, 300.930 178.210 L 298.017 180.363 302.051 183.034 C 304.269 184.502, 308.625 186.558, 311.731 187.602 C 316.054 189.055, 318.803 190.943, 323.455 195.654 C 328.819 201.086, 330.115 201.888, 334.515 202.495 C 351.845 204.886, 362.839 210.885, 367.553 220.519 C 370.379 226.295, 370.436 228.646, 368.023 239.859 C 367.389 242.807, 367.156 245.957, 367.506 246.859 C 368.075 248.326, 368.293 248.296, 369.561 246.573 C 370.341 245.513, 371.245 244.912, 371.570 245.236 C 372.493 246.160, 367.659 253.984, 366.159 253.992 C 365.422 253.997, 361.396 257.154, 357.213 261.009 C 349.130 268.457, 340.299 273.699, 338.636 272.036 C 338.014 271.414, 337.201 271.681, 336.354 272.785 C 335.204 274.283, 334.914 274.311, 334.058 273.005 C 333.196 271.689, 332.924 271.702, 331.789 273.115 C 330.208 275.084, 327 276.306, 327 274.939 C 327 274.389, 325.762 274.823, 324.250 275.901 C 320.081 278.875, 295.413 288.269, 278 293.514 C 255.819 300.196, 251.567 302.200, 257.250 303.294 C 258.698 303.573, 258.074 303.832, 255.500 304.021 L 251.500 304.314 256.500 305 L 261.500 305.686 256 306.015 L 250.500 306.345 257 307 L 263.500 307.655 255.750 307.827 C 248.170 307.996, 246.888 307.512, 249.087 305.313 C 251.612 302.788, 247.731 303.581, 235.500 308.090 C 228.350 310.726, 219.917 313.697, 216.759 314.691 C 213.602 315.686, 211.174 316.950, 211.363 317.500 C 211.553 318.050, 212.388 318.382, 213.220 318.237 C 214.052 318.092, 215.334 318.767, 216.068 319.737 C 217.206 321.239, 217.196 321.315, 216.002 320.250 C 213.366 317.900, 212.647 318.995, 215.076 321.660 C 217.106 323.888, 217.193 324.209, 215.609 323.637 C 214.004 323.058, 213.909 323.185, 214.981 324.477 C 217.225 327.181, 214.263 326.170, 210.653 323 C 205.885 318.814, 205.240 319.242, 209.765 323.589 C 213.838 327.502, 212.919 327.275, 206 322.656 C 202.163 320.094, 201.795 319.993, 203.500 321.969 C 204.600 323.244, 206.850 325.120, 208.500 326.139 C 210.150 327.159, 211.107 327.994, 210.628 327.996 C 210.148 327.998, 210.359 328.788, 211.097 329.750 C 212.068 331.016, 211.756 330.932, 209.970 329.446 C 208.611 328.316, 205.700 326.144, 203.500 324.619 C 200.355 322.438, 200.782 323.052, 205.500 327.489 C 210.953 332.617, 211.135 332.914, 207.500 330.745 C 201.730 327.303, 200.168 326.618, 202.811 328.689 C 210.247 334.517, 210.547 335.092, 204.500 331.932 C 201.200 330.208, 197.635 328.055, 196.578 327.148 C 195.442 326.174, 194.980 326.051, 195.448 326.848 C 195.883 327.589, 198.298 329.502, 200.815 331.098 C 206.470 334.684, 204.729 334.879, 197.717 331.446 C 193.938 329.595, 193.152 329.414, 194.864 330.786 C 196.164 331.828, 198.864 333.260, 200.864 333.967 C 206.604 335.999, 207.556 337.124, 204.818 338.643 C 203.543 339.350, 200.700 339.991, 198.500 340.067 L 194.500 340.205 197.911 341.009 C 199.788 341.451, 202.038 341.604, 202.911 341.348 C 203.785 341.092, 202.726 341.864, 200.558 343.064 C 197.289 344.873, 195.582 345.151, 190.558 344.694 C 184.524 344.146, 184.516 344.148, 188.500 345.413 C 192.098 346.556, 192.249 346.727, 190 347.122 C 188.625 347.364, 185.938 347.235, 184.028 346.836 C 178.498 345.680, 179.270 346.732, 185.222 348.462 L 190.658 350.043 200.079 345.678 C 209.629 341.253, 219.898 337.422, 221.230 337.786 C 222.262 338.069, 234.084 335.249, 234.779 334.555 C 235.397 333.937, 230.550 334.682, 225.239 336.022 C 223.445 336.475, 222.196 336.492, 222.463 336.060 C 222.730 335.628, 225.098 334.696, 227.724 333.990 C 234.388 332.197, 235.237 331.019, 229.950 330.900 L 225.500 330.799 229.483 329.867 C 235.259 328.515, 235.730 327.372, 230.832 326.589 C 227.841 326.111, 226.962 325.641, 227.934 325.041 C 228.701 324.567, 230.899 324.434, 232.820 324.746 C 235.317 325.151, 236.108 324.983, 235.596 324.156 C 235.203 323.520, 233.896 322.966, 232.691 322.924 C 229.988 322.830, 222.896 320.181, 225.066 320.076 C 225.928 320.034, 229.234 320.481, 232.414 321.069 C 239.282 322.338, 240.888 321.646, 235.097 319.911 C 229.083 318.109, 230.095 316.940, 236.250 318.579 C 244.254 320.709, 246.369 320.086, 239 317.769 C 231.957 315.554, 232.350 314.095, 239.503 315.897 C 247.202 317.835, 248.437 316.663, 241.168 314.315 C 237.714 313.200, 237.879 313.156, 244 313.569 C 250.361 313.998, 250.417 313.981, 246.614 312.754 C 239.900 310.587, 242.368 309.505, 254.246 309.407 C 260.436 309.356, 263.475 309.558, 261 309.855 L 256.500 310.396 261.922 310.948 C 269.874 311.757, 269.814 313.956, 261.833 314.168 C 257.309 314.288, 256.621 314.451, 259.424 314.739 C 264.760 315.286, 278.632 313.349, 285.429 311.107 C 290.889 309.305, 291 309.307, 291 311.181 C 291 312.280, 289.692 313.817, 287.925 314.797 C 282.333 317.894, 281.348 319.094, 285.791 317.392 C 288.152 316.489, 290.271 315.938, 290.501 316.168 C 290.731 316.398, 285.049 319.920, 277.875 323.995 C 263.036 332.423, 259.446 334.877, 265.404 332.519 C 271.047 330.285, 271.013 331.437, 265.348 334.385 C 259.433 337.462, 260.041 337.754, 266.456 334.916 C 272.202 332.375, 273.612 333.116, 268.626 336.058 C 264.052 338.757, 263.988 339.321, 268.468 337.449 C 272.476 335.774, 273 335.701, 273 336.819 C 273 337.269, 271.538 338.408, 269.750 339.349 C 267.215 340.685, 267.050 340.921, 269 340.420 C 270.375 340.066, 275.100 339.429, 279.500 339.004 C 290.629 337.927, 306.272 333.859, 315.275 329.699 C 331.411 322.244, 351.823 305.763, 361.965 292 C 366.744 285.516, 370.861 278.228, 371.494 275.133 C 371.678 274.235, 372.168 272.639, 372.584 271.586 C 373.154 270.142, 373.015 269.873, 372.015 270.490 C 371.128 271.039, 370.930 270.923, 371.415 270.138 C 371.813 269.494, 372.493 269.187, 372.927 269.455 C 373.668 269.913, 377 261.077, 377 258.653 C 377 258.039, 375.835 259.250, 374.411 261.346 C 372.987 263.441, 371.574 264.907, 371.270 264.603 C 370.966 264.299, 372.243 261.827, 374.108 259.109 L 377.500 254.168 378.166 258.334 C 378.567 260.837, 378.669 259.467, 378.423 254.904 C 377.944 246.016, 374.138 230.173, 370.974 223.895 C 369.756 221.478, 367.176 217.548, 365.241 215.163 L 361.724 210.826 366.612 213.324 C 376.798 218.530, 383.990 226.985, 385.474 235.500 C 386.696 242.515, 391.380 249.119, 393.990 247.506 C 395.825 246.372, 397.243 236.409, 396.749 228.119 C 396.166 218.337, 393.716 211, 391.033 211 C 389.433 211, 389.522 210.118, 392.070 200.750 C 393.603 195.113, 395.331 189.254, 395.911 187.730 C 397.137 184.510, 400 172.488, 400 170.561 C 400 169.599, 398.824 169.378, 395.630 169.738 C 392.979 170.037, 390.990 169.792, 390.571 169.115 C 390.188 168.494, 390.513 168, 391.305 168 C 392.088 168, 395.602 166.671, 399.114 165.046 C 404.272 162.660, 404.971 162.083, 402.750 162.046 C 401.238 162.021, 400 162.398, 400 162.883 C 400 163.369, 399.212 163.993, 398.250 164.270 C 397.288 164.547, 395.712 165.097, 394.750 165.494 C 393.703 165.924, 393 165.769, 393 165.107 C 393 164.498, 393.675 164, 394.500 164 C 395.325 164, 396 163.499, 396 162.887 C 396 162.223, 394.810 161.948, 393.053 162.206 C 391.432 162.443, 390.302 162.320, 390.543 161.931 C 390.783 161.542, 388.929 160.917, 386.424 160.541 C 382.238 159.913, 381.719 159.510, 380.030 155.570 C 378.896 152.924, 376.865 150.462, 374.728 149.141 C 370.189 146.335, 361.514 146.442, 342 149.542 M 359.528 151.272 C 355.087 155.713, 355.083 158.283, 359.508 162.708 C 363.141 166.341, 364.454 166.535, 372 164.551 C 373.612 164.128, 373.108 164.663, 370.580 166.058 C 367.300 167.869, 365.832 168.098, 361.580 167.462 C 358.786 167.044, 353.486 166.671, 349.803 166.631 C 342.099 166.550, 341.839 166.192, 348.652 165.049 C 353.389 164.254, 353.413 164.233, 349.684 164.118 C 345.112 163.977, 341.870 165.499, 342.614 167.437 C 343.105 168.717, 347.754 169.461, 360.254 170.261 L 363.008 170.437 360.983 172.462 C 358.793 174.651, 352.409 175.133, 346.250 173.573 C 344.260 173.069, 343 173.124, 343 173.715 C 343 175.115, 353.342 177.382, 356.318 176.635 C 357.709 176.286, 360.219 174.846, 361.896 173.434 C 363.574 172.022, 367.678 169.502, 371.015 167.835 C 374.353 166.167, 377.819 163.679, 378.718 162.307 C 380.245 159.977, 380.229 159.581, 378.481 156.334 C 376.063 151.845, 371.909 148.932, 366.981 148.271 C 363.489 147.802, 362.666 148.134, 359.528 151.272 M 362.389 151.980 C 359.865 153, 358.864 155.162, 360.038 157.062 C 360.507 157.821, 361.028 158.230, 361.196 157.971 C 361.363 157.712, 361.995 156.600, 362.601 155.500 C 364.322 152.373, 368.392 152.412, 370.884 155.580 C 372.048 157.059, 373 157.799, 373 157.224 C 373 155.862, 367.195 150.981, 365.673 151.063 C 365.028 151.098, 363.550 151.511, 362.389 151.980 M 399.216 154.383 C 397.410 155.969, 396.109 157.443, 396.325 157.658 C 396.541 157.874, 402.398 157.139, 409.342 156.025 C 416.286 154.911, 423.624 154, 425.650 154 C 427.676 154, 429.013 153.680, 428.622 153.289 C 428.231 152.897, 422.193 152.335, 415.205 152.039 L 402.500 151.500 399.216 154.383 M 320.638 157.479 C 318.515 158.738, 315.590 161.040, 314.138 162.595 C 312.640 164.200, 312.418 164.664, 313.625 163.668 C 314.794 162.704, 318.619 160.370, 322.125 158.481 C 325.631 156.591, 327.600 155.078, 326.500 155.117 C 325.400 155.156, 322.762 156.219, 320.638 157.479 M 318.080 163.080 C 314.095 165.878, 311.076 168.409, 311.370 168.704 C 311.665 168.998, 314.198 167.557, 317 165.500 C 319.802 163.443, 322.333 161.999, 322.625 162.291 C 322.917 162.583, 320.610 164.702, 317.500 167 C 314.390 169.298, 312.084 171.417, 312.376 171.710 C 312.669 172.002, 314.616 170.912, 316.704 169.288 C 322.173 165.035, 323.863 164.279, 321.084 167.330 C 319.755 168.789, 316.684 170.943, 314.259 172.117 C 311.305 173.547, 310.182 174.582, 310.856 175.256 C 311.530 175.930, 313.997 174.693, 318.338 171.506 C 324.208 167.196, 324.854 166.365, 325.246 162.626 C 325.484 160.356, 325.599 158.386, 325.502 158.246 C 325.405 158.106, 322.065 160.282, 318.080 163.080 M 337.750 161.692 C 335.137 163.147, 333 164.667, 333 165.070 C 333 165.474, 335.137 165.122, 337.750 164.287 C 343.815 162.351, 351.111 161.105, 352.737 161.729 C 353.432 161.996, 354 161.764, 354 161.214 C 354 158.008, 343.832 158.307, 337.750 161.692 M 343.762 160.707 C 345.006 160.946, 346.806 160.937, 347.762 160.687 C 348.718 160.437, 347.700 160.241, 345.500 160.252 C 343.300 160.263, 342.518 160.468, 343.762 160.707 M 348.083 167.359 C 348.313 167.557, 350.750 167.978, 353.500 168.296 C 356.717 168.668, 357.787 168.565, 356.500 168.007 C 354.589 167.179, 347.216 166.612, 348.083 167.359 M 318.090 174.023 C 315.290 176.236, 313 178.517, 313 179.091 C 313 180.219, 316.422 177.946, 322 173.114 C 327.193 168.614, 323.990 169.359, 318.090 174.023 M 346.258 171.592 C 347.286 172.620, 357.019 172.932, 359.307 172.010 C 360.863 171.383, 359.202 171.108, 353.583 171.063 C 349.229 171.029, 345.933 171.266, 346.258 171.592 M 319.514 177.469 C 316.772 179.885, 314.842 182.175, 315.224 182.558 C 316.007 183.340, 326 175.318, 326 173.907 C 326 172.241, 324.537 173.044, 319.514 177.469 M 375.762 180.750 C 369.955 186.634, 362.629 198.851, 363.188 201.722 C 363.360 202.602, 365.300 199.769, 367.500 195.427 C 371.117 188.288, 382.875 173.903, 382.965 176.507 C 382.984 177.061, 380.598 180.667, 377.661 184.521 C 371.422 192.710, 369.953 195.275, 368.949 199.726 C 367.822 204.722, 369.632 203.625, 371.425 198.225 C 372.298 195.598, 374.846 191.230, 377.088 188.517 C 382.053 182.508, 384.324 178.288, 383.604 176.410 C 382.732 174.139, 381.752 174.681, 375.762 180.750 M 322.226 180.200 C 319.325 182.447, 317.175 184.509, 317.449 184.782 C 318.244 185.577, 328.995 177.801, 328.410 176.855 C 327.746 175.780, 328.370 175.443, 322.226 180.200 M 385.515 183.968 C 383.903 187.341, 381.910 190.640, 381.086 191.300 C 380.248 191.971, 380.597 190.846, 381.875 188.750 C 383.134 186.688, 383.918 185, 383.618 185 C 382.491 185, 378 192.543, 378 194.435 C 378 197.537, 385.625 189.549, 387.600 184.379 C 390.199 177.572, 388.712 177.279, 385.515 183.968 M 324.096 183.044 C 321.124 185.220, 319.324 186.987, 320.096 186.972 C 320.868 186.957, 323.268 185.607, 325.428 183.972 C 327.589 182.337, 329.753 181, 330.237 181 C 331.845 181, 329.884 183.048, 325.821 185.613 C 323.616 187.005, 322.085 188.419, 322.421 188.754 C 322.756 189.089, 325.062 187.932, 327.544 186.182 C 332.279 182.844, 333.001 182.522, 332.998 183.750 C 332.997 184.162, 330.952 185.792, 328.452 187.371 C 325.953 188.950, 324.145 190.478, 324.434 190.767 C 324.723 191.056, 326.759 190.102, 328.958 188.646 C 333.120 185.892, 335 185.354, 335 186.918 C 335 187.422, 333.212 188.660, 331.026 189.668 C 328.840 190.675, 327.040 191.814, 327.026 192.198 C 326.987 193.240, 332.152 191.206, 334.914 189.092 L 337.329 187.243 334.169 183.872 C 332.431 182.017, 331.007 180.162, 331.005 179.750 C 330.996 178.367, 329.533 179.065, 324.096 183.044 M 391.821 180 C 390.404 183.800, 387.730 197.064, 388.272 197.605 C 389.263 198.596, 393.181 184.398, 392.764 181.327 C 392.522 179.542, 392.175 179.053, 391.821 180 M 363.199 181.050 C 361.933 181.558, 358.405 182.078, 355.359 182.205 C 349.879 182.435, 349.844 182.456, 352.021 184.218 C 354.929 186.573, 362.283 186.509, 367.627 184.082 C 371.730 182.219, 374.118 180, 372.019 180 C 371.415 180, 369.251 180.839, 367.210 181.865 C 362.602 184.181, 356.934 185.241, 355.161 184.119 C 354.290 183.568, 355.623 183.099, 358.970 182.777 C 361.801 182.505, 364.631 181.769, 365.259 181.141 C 366.589 179.811, 366.316 179.799, 363.199 181.050 M 364.863 190.359 C 359.212 194.490, 355 198.450, 355 199.630 C 355 201.954, 356.190 201.204, 361.740 195.381 C 366.949 189.917, 368.185 187.929, 364.863 190.359 M 353.359 194.923 C 350.170 196.868, 348.218 199.022, 349.691 198.973 C 350.580 198.944, 357.807 193.068, 357 193.031 C 356.725 193.018, 355.087 193.869, 353.359 194.923 M 329 194.358 C 329 195.870, 335.404 198, 339.950 198 C 346.824 198, 346.345 196.416, 339.250 195.686 C 336.087 195.360, 332.488 194.795, 331.250 194.430 C 330.012 194.065, 329 194.033, 329 194.358 M 379.093 219.250 C 385.828 227.512, 387.121 228.123, 381.352 220.317 C 378.076 215.884, 378.418 215.072, 382.090 218.563 C 383.789 220.178, 386.461 224.313, 388.027 227.750 C 391.254 234.834, 392.549 235.759, 391.526 230.250 C 390.744 226.040, 387.113 219, 385.724 219 C 385.224 219, 383.679 218.106, 382.290 217.014 C 380.901 215.921, 379.399 215.253, 378.952 215.530 C 378.504 215.806, 377.856 215.575, 377.510 215.016 C 377.165 214.457, 376.417 214, 375.848 214 C 375.279 214, 376.740 216.363, 379.093 219.250 M 350.002 220.398 C 348.258 222.142, 348.916 224, 351.277 224 C 353.690 224, 358 221.463, 358 220.042 C 358 218.869, 351.229 219.171, 350.002 220.398 M 344.290 221.502 C 343.052 222.373, 341.071 222.821, 339.790 222.519 C 336.509 221.747, 334.200 223.462, 335.567 225.655 C 336.154 226.596, 337.362 227.826, 338.252 228.387 C 341.341 230.335, 347.621 225.225, 346.813 221.420 C 346.541 220.137, 346.212 220.148, 344.290 221.502 M 317.041 224.450 C 314.693 227.280, 294.912 237, 291.502 237 C 291.253 237, 291.477 235.875, 292 234.500 C 292.953 231.994, 292.228 231.235, 290.450 232.877 C 289.928 233.359, 287.025 234.546, 284 235.514 C 270.942 239.693, 266.738 244.011, 275.750 243.988 C 278.925 243.980, 281.904 243.173, 284.733 241.556 C 287.061 240.225, 289.225 239.555, 289.542 240.068 C 290.579 241.746, 299.242 241.061, 303.587 238.958 C 307.795 236.921, 315.680 229.335, 317.899 225.188 C 319.239 222.685, 318.812 222.317, 317.041 224.450 M 327.709 224.378 C 323.896 225.286, 323.172 225.772, 324.159 226.759 C 326.147 228.747, 331.767 228.304, 332.965 226.066 C 334.823 222.594, 334.984 222.646, 327.709 224.378 M 239.617 240.987 C 231.246 243.660, 224.131 250.962, 228.328 252.572 C 230.338 253.344, 234.365 251.497, 238.404 247.950 C 241.501 245.231, 246.785 238.890, 245.818 239.054 C 245.643 239.083, 242.853 239.953, 239.617 240.987 M 353.500 245.091 C 351.300 246.152, 348.386 246.834, 347.023 246.605 C 345.307 246.318, 343.508 247.103, 341.162 249.162 C 339.301 250.797, 335.803 253.093, 333.389 254.266 C 330.618 255.612, 329 257.062, 329 258.199 C 329 261.918, 335.669 259.204, 347.627 250.617 C 351.547 247.803, 355.597 244.964, 356.627 244.309 C 359.371 242.564, 358.061 242.891, 353.500 245.091 M 290.427 249.649 C 290.568 252.652, 290.172 252.995, 281.814 257.091 C 276.995 259.453, 273.219 261.552, 273.423 261.756 C 273.626 261.960, 277.511 260.257, 282.055 257.972 C 288.241 254.862, 291.183 253.919, 293.760 254.220 C 296.803 254.575, 296.995 254.470, 295.411 253.311 C 294.425 252.590, 293.057 252, 292.372 252 C 291.687 252, 290.936 250.762, 290.703 249.250 C 290.344 246.916, 290.302 246.977, 290.427 249.649 M 370.178 252.149 C 368.351 254.921, 367.054 257.387, 367.295 257.628 C 368.143 258.476, 374 250.908, 374 248.965 C 374 247.884, 373.887 247.024, 373.750 247.054 C 373.613 247.084, 372.005 249.376, 370.178 252.149 M 376.116 249.673 C 376.052 250.319, 374.425 252.910, 372.500 255.432 C 368.765 260.325, 368.456 261, 369.952 261 C 371.569 261, 377.162 252.044, 376.684 250.221 C 376.435 249.275, 376.180 249.028, 376.116 249.673 M 233.568 257.091 C 228.594 259.510, 227.784 260.343, 231.252 259.473 C 234.324 258.702, 239 259.570, 239 260.910 C 239 261.840, 216.074 273.313, 204.670 278.091 C 187.696 285.203, 168.297 303.186, 169.205 310.968 C 169.478 313.312, 169.909 313.512, 175 313.661 L 180.500 313.822 176.250 312.769 C 172.906 311.940, 172 311.261, 172 309.580 C 172 305.767, 174.780 303.014, 178.807 302.840 C 182.498 302.680, 182.498 302.680, 179.250 302.277 C 173.640 301.580, 174.651 300.419, 189.500 290.502 C 199.972 283.508, 240.448 262.649, 242.331 263.277 C 242.930 263.477, 237.924 266.270, 231.207 269.483 C 224.489 272.697, 219.173 275.506, 219.392 275.726 C 219.612 275.945, 223.776 274.134, 228.646 271.702 C 239.496 266.281, 244.400 264.632, 247.417 265.390 C 249.289 265.860, 249.632 266.473, 249.223 268.615 C 248.809 270.780, 247.333 271.889, 241.108 274.710 C 226.330 281.411, 204.015 292.349, 204.381 292.714 C 204.584 292.917, 213.694 288.861, 224.625 283.699 C 235.556 278.538, 245.957 273.742, 247.737 273.042 C 249.518 272.341, 250.726 271.366, 250.423 270.875 C 250.119 270.384, 250.155 269.086, 250.503 267.991 C 251.044 266.286, 252.096 265.978, 257.817 265.849 C 264.234 265.705, 264.136 265.672, 255.334 265.019 C 245.380 264.282, 242.108 262.870, 239.175 258.048 L 237.446 255.204 233.568 257.091 M 297 257.072 C 297 258.192, 269.246 271.875, 262.766 273.949 C 260.712 274.607, 258.015 274.822, 256.774 274.428 C 254.753 273.787, 254.661 273.887, 255.900 275.380 C 256.662 276.298, 257.033 277.300, 256.726 277.607 C 256.418 277.915, 257.067 279.067, 258.167 280.167 C 259.267 281.267, 260.463 281.870, 260.825 281.508 C 261.187 281.146, 260.700 280.411, 259.742 279.875 C 257.673 278.718, 257.441 277, 259.352 277 C 261.442 277, 281.595 268.353, 290.250 263.743 C 295.535 260.928, 298 259.040, 298 257.807 C 298 256.813, 297.775 256, 297.500 256 C 297.225 256, 297 256.482, 297 257.072 M 209.750 269.572 C 206.012 271.600, 206.239 272.445, 210 270.500 C 211.650 269.647, 213 268.735, 213 268.474 C 213 267.831, 212.893 267.867, 209.750 269.572 M 365.724 273.542 C 363.666 274.940, 361.424 276.012, 360.741 275.923 C 358.400 275.621, 356.667 276, 357.336 276.669 C 357.703 277.037, 357.259 278.162, 356.347 279.169 C 353.786 281.999, 356.236 281.336, 360.943 277.926 C 363.277 276.236, 365.404 275.071, 365.671 275.337 C 365.937 275.604, 363.610 277.702, 360.500 280 C 354.519 284.418, 353.606 286.648, 359.197 283.180 C 363.080 280.772, 368.451 275.240, 369.324 272.750 C 370.100 270.535, 370.172 270.519, 365.724 273.542 M 367.917 277.392 C 366.588 278.708, 363.813 281.440, 361.750 283.463 C 359.688 285.487, 358.013 287.673, 358.030 288.321 C 358.046 288.970, 359.833 287.475, 362 285 C 367.897 278.266, 366.804 281.065, 360.124 289.809 C 352.587 299.673, 341.461 310.385, 339.765 309.408 C 339.069 309.007, 338.838 309.052, 339.252 309.509 C 340.023 310.358, 337.314 314, 335.911 314 C 334.677 314, 324.931 320.264, 325.414 320.747 C 325.653 320.987, 328.920 319.501, 332.674 317.446 C 340.611 313.102, 352.658 301.814, 360.899 291 C 365.815 284.549, 371.635 275, 370.651 275 C 370.477 275, 369.246 276.076, 367.917 277.392 M 207.750 281.061 C 202.387 283.788, 198 286.244, 198 286.519 C 198 286.794, 202.500 284.760, 208 282 C 213.500 279.240, 218 276.761, 218 276.491 C 218 275.813, 218.562 275.562, 207.750 281.061 M 370.736 281.840 C 369.276 285.020, 366.669 289.395, 364.943 291.561 C 363.217 293.728, 360.638 297.525, 359.211 300 C 354.207 308.684, 347.461 316.271, 339.295 322.399 C 330.725 328.831, 313.267 339.581, 305.808 343.018 C 303.439 344.110, 302.625 344.738, 304 344.414 C 305.375 344.089, 309.425 342.514, 313 340.912 C 318.092 338.631, 318.989 338.434, 317.139 340 C 313.728 342.890, 315.858 342.457, 320.518 339.314 C 322.855 337.737, 323.913 337.348, 323.080 338.371 C 322.299 339.330, 319.691 341.269, 317.285 342.679 C 310.377 346.727, 312.963 346.462, 322.254 342.170 C 338.150 334.826, 351.592 324.358, 361.003 311.996 C 364.207 307.787, 367.748 302.354, 368.873 299.922 C 371.559 294.113, 376.153 279.820, 375.533 279.200 C 375.266 278.932, 374.825 279.341, 374.553 280.107 C 374.281 280.873, 372.872 284.875, 371.422 289 C 369.068 295.698, 362.750 307, 361.360 307 C 361.068 307, 362.480 304.046, 364.499 300.435 C 367.789 294.552, 374.446 277.112, 373.690 276.356 C 373.525 276.192, 372.196 278.659, 370.736 281.840 M 240 286.600 C 235.875 288.541, 229.214 291.502, 225.198 293.179 C 221.182 294.857, 218.068 296.401, 218.278 296.611 C 218.893 297.226, 248 284.399, 248 283.513 C 248 282.807, 248.353 282.671, 240 286.600 M 263.500 292.916 C 256.498 296.022, 215.188 309.659, 195.500 315.364 C 171.710 322.256, 153.607 328.645, 150.718 331.168 L 148.500 333.106 151 332.434 C 152.375 332.064, 162.794 328.467, 174.154 324.440 C 185.514 320.413, 203.514 314.410, 214.154 311.101 C 238.881 303.410, 260.392 295.913, 265.500 293.207 C 270.342 290.642, 269.049 290.454, 263.500 292.916 M 362.150 297.384 C 359.868 300.913, 358 304.080, 358 304.422 C 358 304.763, 356.809 306.842, 355.354 309.042 C 353.898 311.241, 352.931 313.265, 353.205 313.538 C 353.800 314.134, 357.223 309.137, 363.015 299.217 C 365.354 295.211, 367.050 291.716, 366.784 291.450 C 366.518 291.184, 364.433 293.854, 362.150 297.384 M 199.500 294.232 C 198.400 294.877, 194.125 296.882, 190 298.690 C 185.875 300.497, 183.175 301.971, 184 301.965 C 185.718 301.954, 204.023 293.196, 202.500 293.114 C 201.950 293.085, 200.600 293.588, 199.500 294.232 M 330 297.690 C 324.150 300.837, 322.875 301.148, 317.250 300.796 C 313.813 300.581, 311 300.703, 311 301.067 C 311 302.078, 319.239 305, 322.089 305 C 324.913 305, 337.357 301.024, 336.674 300.340 C 336.432 300.099, 333.229 300.599, 329.556 301.451 C 325.882 302.303, 322.116 302.962, 321.188 302.915 C 320.260 302.868, 321.750 302.274, 324.500 301.594 C 330.225 300.179, 335.060 297.837, 336.945 295.566 C 338.833 293.292, 337.311 293.757, 330 297.690 M 213 298.500 C 211.625 299.286, 210.950 299.929, 211.500 299.929 C 212.050 299.929, 213.625 299.286, 215 298.500 C 216.375 297.714, 217.050 297.071, 216.500 297.071 C 215.950 297.071, 214.375 297.714, 213 298.500 M 336.777 302.556 C 336.471 302.862, 332.774 304.611, 328.561 306.442 C 324.348 308.274, 320.841 310.161, 320.768 310.636 C 320.367 313.226, 307.045 319.975, 302.221 320.032 C 299.757 320.061, 299.664 320.188, 301.234 321.381 C 302.188 322.105, 302.691 322.976, 302.352 323.315 C 300.281 325.385, 317.008 317.752, 324.500 313.207 C 329.450 310.205, 334.735 307.017, 336.244 306.124 C 337.753 305.231, 338.990 303.938, 338.994 303.250 C 339 301.962, 337.760 301.574, 336.777 302.556 M 349.966 307.579 C 340.736 316.999, 321.400 329.200, 306.500 335.004 C 299.901 337.575, 294.073 341.191, 295.671 341.724 C 296.996 342.165, 311.368 336.859, 318.190 333.410 C 326.827 329.043, 340.167 319.901, 345.004 315.033 C 349.405 310.603, 356.532 302, 355.800 302 C 355.597 302, 352.972 304.510, 349.966 307.579 M 334.770 309.029 C 330.397 311.926, 325.430 316.623, 329 314.486 C 330.358 313.673, 338.909 307.331, 339.917 306.389 C 341.307 305.090, 338.690 306.432, 334.770 309.029 M 247.500 311 C 249.150 311.420, 251.850 311.765, 253.500 311.767 C 256.022 311.769, 255.863 311.638, 252.500 310.943 C 247.434 309.895, 243.341 309.942, 247.500 311 M 259.750 312.706 C 260.988 312.944, 263.012 312.944, 264.250 312.706 C 265.488 312.467, 264.475 312.272, 262 312.272 C 259.525 312.272, 258.512 312.467, 259.750 312.706 M 281.322 313.326 C 279.574 313.972, 277.807 314.842, 277.396 315.259 C 276.384 316.286, 283.249 313.955, 284.450 312.864 C 285.616 311.804, 285.328 311.846, 281.322 313.326 M 282 315.533 C 278.425 317.385, 275.782 318.922, 276.126 318.950 C 277.406 319.053, 287.840 314.067, 288.467 313.053 C 289.296 311.711, 289.619 311.588, 282 315.533 M 267 316 L 262.500 316.700 266.500 316.780 C 268.700 316.823, 271.400 316.473, 272.500 316 C 274.817 315.004, 273.404 315.004, 267 316 M 174.767 341.011 C 167.214 348.152, 157.314 356.673, 152.767 359.945 C 141.740 367.881, 139.815 369.436, 144 367.024 C 148.310 364.541, 149.789 364.435, 147.827 366.750 C 146.286 368.568, 142 375.782, 142 376.557 C 142 377.624, 144.425 376.834, 147.188 374.866 C 149.268 373.385, 149.811 372.502, 148.964 371.978 C 148.293 371.563, 148.066 370.701, 148.461 370.063 C 148.994 369.200, 149.526 369.192, 150.537 370.030 C 151.387 370.736, 152.490 370.825, 153.485 370.268 C 154.899 369.477, 154.856 369.180, 153.094 367.585 C 151.532 366.172, 151.344 365.422, 152.205 364.044 C 153.238 362.389, 153.394 362.394, 155.148 364.148 C 156.167 365.167, 157.563 365.986, 158.250 365.970 C 158.944 365.953, 158.721 365.486, 157.750 364.920 C 155.968 363.882, 155.280 360, 156.878 360 C 157.360 360, 158.315 360.675, 159 361.500 C 159.685 362.325, 160.977 362.982, 161.872 362.960 C 162.908 362.934, 162.499 362.377, 160.750 361.428 C 159.238 360.607, 158 359.527, 158 359.027 C 158 357.135, 160.043 356.980, 162.722 358.669 L 165.500 360.422 163.574 358.187 C 162.097 356.474, 161.922 355.678, 162.824 354.776 C 163.725 353.875, 164.280 353.880, 165.200 354.800 C 166.899 356.499, 168.491 356.296, 167.053 354.564 C 165.687 352.919, 166.642 350.539, 169.823 347.660 C 171.730 345.935, 171.963 345.930, 174.454 347.562 C 177.667 349.667, 187.800 352.133, 188.511 350.983 C 188.795 350.523, 186.601 349.844, 183.636 349.474 C 180.670 349.103, 176.983 347.973, 175.442 346.962 L 172.640 345.124 180.998 336.562 C 185.594 331.853, 189.162 328.006, 188.927 328.013 C 188.692 328.020, 182.320 333.869, 174.767 341.011 M 190.538 332.062 C 191.140 333.035, 199.905 336.433, 200.426 335.894 C 200.636 335.677, 198.389 334.551, 195.432 333.391 C 192.475 332.230, 190.273 331.632, 190.538 332.062 M 193.500 336.974 C 195.410 337.820, 201.785 338.391, 200.917 337.639 C 200.688 337.441, 198.475 337.011, 196 336.683 C 192.995 336.286, 192.165 336.383, 193.500 336.974 M 233.500 338.526 C 231.300 339.881, 229.950 340.990, 230.500 340.990 C 231.050 340.990, 233.300 339.881, 235.500 338.526 C 237.700 337.171, 239.050 336.062, 238.500 336.062 C 237.950 336.062, 235.700 337.171, 233.500 338.526 M 188.500 338.536 C 190.150 339.292, 192.175 339.896, 193 339.879 C 193.825 339.862, 192.925 339.241, 191 338.500 C 186.434 336.742, 184.638 336.768, 188.500 338.536 M 234.146 341.462 C 226.941 346.054, 226.348 346.923, 232.767 343.485 C 235.664 341.933, 238.532 340.064, 239.140 339.332 C 240.749 337.393, 240.095 337.672, 234.146 341.462 M 275 341.406 C 268.200 343.967, 266 344.956, 266 345.450 C 266 345.725, 267.238 345.445, 268.750 344.828 C 270.262 344.210, 273.750 342.903, 276.500 341.923 C 279.250 340.942, 280.825 340.128, 280 340.114 C 279.175 340.100, 276.925 340.681, 275 341.406 M 188.500 342.038 C 190.435 342.833, 200.759 343.373, 199.917 342.635 C 199.688 342.435, 196.575 342.034, 193 341.744 C 189.183 341.435, 187.326 341.556, 188.500 342.038 M 238.234 344.029 C 236.438 345.663, 235.341 347, 235.797 347 C 236.253 347, 237.919 345.650, 239.500 344 C 243.175 340.164, 242.466 340.180, 238.234 344.029 M 275 345.065 C 269.545 346.635, 269.215 346.841, 272.951 346.346 C 277.452 345.750, 285.769 343.119, 283 343.167 C 282.175 343.182, 278.575 344.035, 275 345.065 M 274.119 349.723 C 271.213 351.220, 269.338 352.613, 269.951 352.817 C 270.565 353.022, 271.680 352.680, 272.430 352.058 C 273.180 351.436, 275.527 350.061, 277.646 349.003 C 279.766 347.945, 281.028 347.062, 280.452 347.040 C 279.875 347.018, 277.026 348.225, 274.119 349.723 M 171 349.148 C 171 351.033, 175.160 353.035, 178.797 352.900 C 180.956 352.819, 180.695 352.614, 177.500 351.878 C 175.300 351.371, 172.938 350.205, 172.250 349.287 C 171.188 347.869, 171 347.848, 171 349.148 M 271.322 353.815 C 267.036 355.429, 265 358.191, 265 362.390 C 265 364.042, 268.867 368.343, 278.804 377.744 L 292.608 390.803 299.054 391.404 C 309.757 392.402, 310.217 392.358, 318.500 389.556 C 322.900 388.067, 327.588 386.545, 328.918 386.175 C 330.248 385.804, 331.506 384.990, 331.713 384.366 C 332.146 383.061, 315.827 373.797, 305.500 369.485 C 298.199 366.437, 294.347 363.229, 293.385 359.397 C 292.829 357.184, 292.568 357.144, 280.659 357.449 C 270.246 357.717, 268.787 357.569, 270.500 356.424 C 273.582 354.363, 276.556 352.054, 276 352.152 C 275.725 352.201, 273.620 352.949, 271.322 353.815 M 126.250 378.552 C 122.263 381.585, 119 384.287, 119 384.557 C 119 384.827, 122.375 382.507, 126.500 379.403 C 133.015 374.499, 134.784 372.942, 133.750 373.019 C 133.613 373.029, 130.238 375.519, 126.250 378.552 M 365.201 384.854 C 363.813 385.735, 364.238 390.638, 365.842 392.242 C 366.345 392.745, 368.049 393.009, 369.628 392.828 C 373.268 392.412, 373.992 388.992, 371.061 386.061 C 368.858 383.858, 367.283 383.534, 365.201 384.854 M 378.397 390.750 C 378.759 392.813, 379.330 396.637, 379.667 399.250 C 380.333 404.424, 381.438 405.377, 382.386 401.598 C 383.115 398.694, 382.213 393.491, 380.332 389.750 C 378.404 385.916, 377.619 386.321, 378.397 390.750 M 395 387.959 C 390.953 388.485, 393.594 388.726, 405 388.872 C 413.525 388.981, 424.083 389.708, 428.463 390.489 C 432.843 391.269, 436.630 391.703, 436.880 391.454 C 437.129 391.204, 437.146 390.993, 436.917 390.985 C 436.687 390.977, 434.700 390.300, 432.500 389.482 C 428.811 388.109, 430.169 388.033, 450 388.495 C 461.825 388.771, 475.100 389.266, 479.500 389.595 C 488.242 390.249, 512 389.192, 512 388.149 C 511.999 387.253, 401.809 387.073, 395 387.959 M 328.535 390.130 C 323.605 391.159, 318.880 392.733, 318.035 393.628 C 316.630 395.117, 316.788 395.201, 319.899 394.623 C 321.768 394.275, 327.746 393.699, 333.184 393.343 C 338.622 392.986, 343.287 392.344, 343.552 391.916 C 344.113 391.008, 340.040 387.939, 338.527 388.130 C 337.962 388.201, 333.466 389.101, 328.535 390.130 M 356 391.535 C 356 391.830, 356.740 393.200, 357.645 394.581 C 359.020 396.679, 359.102 397.717, 358.145 400.911 C 356.751 405.562, 356.737 406, 357.974 406 C 359.391 406, 362 400.523, 362 397.550 C 362 396.147, 361.100 394.100, 360 393 C 358.119 391.119, 356 390.343, 356 391.535 M 274.500 395.095 C 266.338 398.620, 265.720 399.106, 266.574 401.333 C 267.328 403.297, 271.151 403.494, 277.496 401.897 C 283.378 400.416, 285.704 397.840, 284.180 394.496 C 283.555 393.123, 282.696 392.016, 282.271 392.036 C 281.847 392.056, 278.350 393.432, 274.500 395.095 M 296.860 396.332 C 298.783 398.648, 307.937 403.150, 310.050 402.818 C 314.100 402.183, 312.346 400.445, 305 397.813 C 296.299 394.695, 295.360 394.524, 296.860 396.332 M 481.354 395.886 C 477.374 396.283, 474.460 397.177, 473.088 398.419 C 470.998 400.312, 470.947 400.312, 469.483 398.419 C 468.084 396.610, 467.938 396.600, 466.950 398.250 C 465.810 400.151, 463.369 400.601, 462.833 399.009 C 462.650 398.464, 460.475 399.362, 458 401.005 C 455.525 402.647, 452.600 404.047, 451.500 404.114 C 446.326 404.431, 456.398 405.775, 464.750 405.882 C 472.057 405.975, 474 406.301, 474 407.433 C 474 409.824, 470.552 410.231, 447.580 410.545 C 422.091 410.894, 392.025 412.576, 390.881 413.717 C 389.748 414.847, 420.251 414.253, 435.332 412.851 C 445.284 411.926, 448.907 411.926, 451.472 412.854 C 453.982 413.761, 459.449 413.805, 474.140 413.034 C 484.788 412.476, 497.663 412.015, 502.750 412.010 L 512 412 512 403.672 L 512 395.343 499.750 395.308 C 493.012 395.288, 484.734 395.548, 481.354 395.886 M 78.946 416.750 L 75.500 420.500 79.250 417.054 C 81.313 415.158, 83 413.471, 83 413.304 C 83 412.540, 82.154 413.260, 78.946 416.750 M 308 414.269 C 308 414.630, 308.927 417.278, 310.061 420.154 C 312.506 426.358, 312.037 429.193, 308.274 430.960 C 306.540 431.774, 305.995 432.441, 306.821 432.738 C 307.548 433, 309.236 432.188, 310.571 430.933 C 313.937 427.771, 313.905 421.616, 310.500 417 C 309.125 415.136, 308 413.907, 308 414.269 M 303.565 425.596 C 302.835 428.507, 304.716 431.684, 306.259 430.141 C 307.325 429.075, 306.279 423, 305.029 423 C 304.582 423, 303.924 424.168, 303.565 425.596 M 190.376 428.086 C 188.657 428.584, 186.695 429.662, 186.015 430.481 C 184.921 431.800, 185.336 431.802, 189.640 430.496 C 192.313 429.685, 194.613 429.017, 194.750 429.011 C 194.887 429.005, 195 428.550, 195 428 C 195 426.848, 194.622 426.855, 190.376 428.086" stroke="none" fill="#0d0d0d" fill-rule="evenodd"/><path d="M 0 256.002 L 0 512.004 256.250 511.752 L 512.500 511.500 512.752 255.750 L 513.004 0 256.502 0 L 0 0 0 256.002 M 0.492 256.500 C 0.492 397.300, 0.608 454.751, 0.750 384.170 C 0.892 313.588, 0.892 198.388, 0.750 128.170 C 0.608 57.951, 0.492 115.700, 0.492 256.500 M 343 128.066 C 323.787 130.937, 311.714 142.161, 297.049 170.783 C 293.750 177.222, 290.607 181.948, 288.641 183.427 C 286.913 184.726, 279.187 188.940, 271.471 192.790 C 257.682 199.672, 240.671 210.245, 237.906 213.651 C 236.341 215.579, 235.951 215.746, 243.500 211.268 C 247.069 209.152, 247.231 209.126, 245 211.034 C 243.625 212.210, 241.150 214.371, 239.500 215.836 C 237.850 217.301, 235.825 218.521, 235 218.547 C 234.175 218.572, 233.597 219.087, 233.715 219.691 C 233.833 220.294, 232.483 222.116, 230.715 223.739 C 217.745 235.645, 210.920 242.565, 205.309 249.500 C 199.122 257.148, 193.029 266.503, 193.009 268.387 C 193.004 268.874, 195.660 266.399, 198.910 262.887 C 203.393 258.043, 205.107 256.776, 206.003 257.643 C 208.027 259.599, 205.675 262.322, 191.319 274.637 C 174.803 288.806, 162.572 301.070, 155.433 310.623 C 152.068 315.125, 148.364 318.768, 145.368 320.525 C 142.760 322.053, 138.685 325.092, 136.313 327.279 C 132.529 330.767, 132 331.776, 132 335.505 C 132 338.049, 131.402 340.251, 130.511 340.991 C 129.692 341.671, 129.232 342.567, 129.490 342.983 C 129.968 343.757, 135.333 342.336, 144.839 338.919 C 153.579 335.777, 153.976 336.447, 147.405 343.250 C 144.084 346.688, 138.503 352.802, 135.003 356.838 C 130.598 361.916, 122.326 368.952, 108.132 379.694 C 81.956 399.504, 72.663 407.216, 61.444 418.440 C 51.156 428.732, 48.337 433.347, 50.411 436.500 C 52.321 439.403, 56.289 439.472, 62.327 436.708 C 67.578 434.304, 67.651 434.299, 69.996 436.198 C 71.864 437.710, 73.221 437.972, 76.431 437.437 C 84.427 436.107, 87.997 433.506, 112 411.518 C 130.672 394.414, 147.599 379.906, 156.803 373.118 C 168.523 364.474, 201.235 349.204, 211.500 347.584 C 214.193 347.159, 217.787 347.614, 222.497 348.976 C 232.852 351.971, 234.876 351.722, 239.803 346.844 C 242.111 344.559, 244 343.151, 244 343.717 C 244 344.282, 241.916 346.666, 239.369 349.014 C 235.088 352.960, 234.951 353.229, 237.558 352.575 C 239.109 352.186, 241.643 350.966, 243.189 349.865 C 244.735 348.765, 246 348.269, 246 348.764 C 246 349.259, 243.863 350.892, 241.250 352.393 L 236.500 355.122 241.750 354.708 C 244.637 354.480, 247 354.438, 247 354.615 C 247 354.792, 245.880 355.523, 244.510 356.241 L 242.020 357.545 247.260 360.943 C 257.729 367.731, 279.007 385.771, 278.997 387.849 C 278.995 388.207, 275.957 389.746, 272.247 391.270 C 268.520 392.800, 262.921 396.242, 259.739 398.960 C 255.399 402.667, 252.870 404.047, 249.489 404.554 C 246.551 404.994, 245 405.727, 245 406.673 C 245 407.468, 245.406 407.867, 245.901 407.561 C 247.343 406.670, 262.311 403.978, 262.847 404.514 C 263.114 404.781, 263.122 405.212, 262.863 405.470 C 262.604 405.729, 249.142 408.640, 232.946 411.939 C 204.573 417.719, 186.720 421.566, 158.018 428.087 C 150.603 429.771, 142.417 431.400, 139.828 431.707 C 136.405 432.112, 134.372 433.046, 132.373 435.132 C 128.822 438.839, 127.799 438.753, 128.186 434.780 C 128.415 432.431, 128.056 431.470, 126.861 431.228 C 125.691 430.991, 124.833 432.127, 123.861 435.198 C 122.854 438.380, 121.914 439.583, 120.250 439.820 C 117.654 440.188, 117.514 439.474, 119.500 436 C 120.286 434.625, 120.945 433.151, 120.965 432.724 C 121.023 431.452, 115.684 434.613, 113.094 437.385 C 111.375 439.225, 110.043 439.798, 108.426 439.392 C 106.331 438.866, 95.503 441.776, 90.230 444.281 C 88.604 445.053, 87.652 445.052, 86.877 444.277 C 85.603 443.003, 68.160 447.395, 56.696 451.877 C 52.738 453.425, 46.462 455.744, 42.750 457.030 C 39.037 458.317, 36 459.737, 36 460.185 C 36 461.319, 36.967 461.219, 42.591 459.499 C 50.145 457.188, 69.194 454.067, 82.499 452.959 C 96.570 451.788, 96.566 451.788, 113.796 447.818 C 124.771 445.289, 128.089 444.077, 132.796 440.879 C 136.322 438.484, 139.661 437.004, 141.540 437.002 C 143.212 437.001, 147.262 436.283, 150.540 435.407 C 153.818 434.530, 160.100 432.942, 164.500 431.878 C 168.900 430.814, 173.287 429.700, 174.250 429.404 C 175.213 429.108, 176 429.327, 176 429.892 C 176 431.017, 175.188 431.260, 154 436.497 C 146.025 438.468, 139 440.738, 138.390 441.541 C 137.779 442.343, 136.317 443, 135.140 443 C 133.963 443, 133 443.450, 133 444 C 133 444.550, 133.338 444.995, 133.750 444.989 C 135.618 444.962, 185.653 434.869, 195.500 432.533 C 223.483 425.894, 254.534 419.728, 278.998 415.951 C 293.896 413.651, 295 413.608, 295 415.325 C 295 416.225, 291.240 417.346, 283.250 418.828 C 276.788 420.026, 270.600 421.012, 269.500 421.018 C 267.836 421.029, 267.752 421.197, 269 422.021 C 269.859 422.588, 273.490 422.761, 277.500 422.426 L 284.500 421.842 276.687 429.525 C 272.390 433.750, 269.094 437.428, 269.363 437.696 C 269.632 437.965, 273.373 435.157, 277.676 431.455 C 284.918 425.226, 296.501 418.584, 298.250 419.658 C 298.663 419.911, 299 421.940, 299 424.166 C 299 427.194, 298.653 428.081, 297.622 427.685 C 294.581 426.518, 292.635 432.235, 295.200 434.800 C 296.732 436.332, 300.254 436.346, 301.773 434.827 C 302.670 433.930, 303.569 433.938, 305.596 434.862 C 311.073 437.357, 316.572 430.308, 315.758 421.834 C 315.328 417.361, 315.460 417, 317.524 417 C 320.029 417, 321.605 418.531, 322.156 421.500 C 322.615 423.973, 325.876 424.144, 327.371 421.774 C 328.199 420.461, 328.050 419.354, 326.745 417.146 L 325.031 414.244 327.857 413.679 C 335.224 412.205, 350.821 411.786, 354.394 412.965 C 357.854 414.107, 358.070 414.407, 357.453 417.215 C 356.543 421.356, 358.727 420.552, 362 415.539 C 364.274 412.057, 364.530 411.915, 364.835 413.971 C 365.019 415.214, 364.681 416.719, 364.085 417.315 C 362.548 418.852, 362.739 421.963, 364.410 422.604 C 366.553 423.426, 371.234 420.604, 377.782 414.542 C 381.034 411.530, 384.983 408.577, 386.557 407.978 C 388.131 407.380, 401.586 406.433, 416.459 405.873 C 444.879 404.804, 449.890 403.943, 452.138 399.743 C 453.857 396.530, 452.444 394.979, 447.777 394.956 C 445.425 394.944, 430.574 394.611, 414.775 394.217 L 386.050 393.500 379.250 386.750 L 372.450 380 366.590 380 C 361.554 380, 360.388 380.368, 358.305 382.616 C 356.116 384.978, 355.321 385.191, 350.118 384.815 C 346.027 384.519, 342.943 383.542, 339.488 381.449 C 336.811 379.827, 329.970 375.779, 324.287 372.452 C 309.920 364.044, 307.795 362.042, 308.188 357.285 C 308.498 353.518, 308.559 353.470, 320.740 347.317 C 337.409 338.896, 346.777 332.277, 358 320.988 C 369.428 309.494, 377.358 298.600, 384.428 284.687 C 397.894 258.185, 401.444 238.910, 397.406 214.239 C 395.386 201.906, 396.048 194.034, 399.843 185.254 C 401.449 181.539, 403.064 176.799, 403.432 174.719 C 403.945 171.828, 405.066 170.240, 408.201 167.969 C 410.456 166.336, 412.850 165, 413.521 165 C 415.398 165, 436.275 158.459, 438.925 157.040 C 440.778 156.048, 440.980 155.601, 439.885 154.908 C 439.123 154.425, 438.950 154.006, 439.500 153.975 C 440.050 153.945, 439.290 153.263, 437.810 152.460 C 433.386 150.057, 422.099 147.833, 412.242 147.421 L 402.984 147.035 397.082 141.003 C 387.499 131.209, 375.576 126.915, 358.540 127.122 C 353.018 127.189, 346.025 127.614, 343 128.066 M 337.760 134.558 C 331.071 136.179, 325.536 138.837, 321.134 142.541 C 316.459 146.474, 317.349 147.540, 322.750 144.479 C 325.363 142.998, 330.200 140.756, 333.500 139.498 C 336.800 138.239, 339.275 136.825, 339 136.355 C 338.222 135.024, 351.529 133.917, 361.500 134.482 C 367.414 134.817, 369.814 134.674, 368.500 134.066 C 365.439 132.650, 344.234 132.989, 337.760 134.558 M 382.976 134.706 C 384.338 135.693, 387.038 137.830, 388.976 139.455 L 392.500 142.410 389.795 139.447 C 388.307 137.818, 385.607 135.681, 383.795 134.699 C 380.622 132.979, 380.592 132.979, 382.976 134.706 M 342 149.542 C 321.049 152.871, 313.072 157.478, 306.962 169.778 C 305.246 173.231, 302.532 177.025, 300.930 178.210 L 298.017 180.363 302.051 183.034 C 304.269 184.502, 308.625 186.558, 311.731 187.602 C 316.054 189.055, 318.803 190.943, 323.455 195.654 C 328.819 201.086, 330.115 201.888, 334.515 202.495 C 351.845 204.886, 362.839 210.885, 367.553 220.519 C 370.379 226.295, 370.436 228.646, 368.023 239.859 C 367.389 242.807, 367.156 245.957, 367.506 246.859 C 368.075 248.326, 368.293 248.296, 369.561 246.573 C 370.341 245.513, 371.245 244.912, 371.570 245.236 C 372.493 246.160, 367.659 253.984, 366.159 253.992 C 365.422 253.997, 361.396 257.154, 357.213 261.009 C 349.130 268.457, 340.299 273.699, 338.636 272.036 C 338.014 271.414, 337.201 271.681, 336.354 272.785 C 335.204 274.283, 334.914 274.311, 334.058 273.005 C 333.196 271.689, 332.924 271.702, 331.789 273.115 C 330.208 275.084, 327 276.306, 327 274.939 C 327 274.389, 325.762 274.823, 324.250 275.901 C 320.081 278.875, 295.413 288.269, 278 293.514 C 255.819 300.196, 251.567 302.200, 257.250 303.294 C 258.698 303.573, 258.074 303.832, 255.500 304.021 L 251.500 304.314 256.500 305 L 261.500 305.686 256 306.015 L 250.500 306.345 257 307 L 263.500 307.655 255.750 307.827 C 248.170 307.996, 246.888 307.512, 249.087 305.313 C 251.612 302.788, 247.731 303.581, 235.500 308.090 C 228.350 310.726, 219.917 313.697, 216.759 314.691 C 213.602 315.686, 211.174 316.950, 211.363 317.500 C 211.553 318.050, 212.388 318.382, 213.220 318.237 C 214.052 318.092, 215.334 318.767, 216.068 319.737 C 217.206 321.239, 217.196 321.315, 216.002 320.250 C 213.366 317.900, 212.647 318.995, 215.076 321.660 C 217.106 323.888, 217.193 324.209, 215.609 323.637 C 214.004 323.058, 213.909 323.185, 214.981 324.477 C 217.225 327.181, 214.263 326.170, 210.653 323 C 205.885 318.814, 205.240 319.242, 209.765 323.589 C 213.838 327.502, 212.919 327.275, 206 322.656 C 202.163 320.094, 201.795 319.993, 203.500 321.969 C 204.600 323.244, 206.850 325.120, 208.500 326.139 C 210.150 327.159, 211.107 327.994, 210.628 327.996 C 210.148 327.998, 210.359 328.788, 211.097 329.750 C 212.068 331.016, 211.756 330.932, 209.970 329.446 C 208.611 328.316, 205.700 326.144, 203.500 324.619 C 200.355 322.438, 200.782 323.052, 205.500 327.489 C 210.953 332.617, 211.135 332.914, 207.500 330.745 C 201.730 327.303, 200.168 326.618, 202.811 328.689 C 210.247 334.517, 210.547 335.092, 204.500 331.932 C 201.200 330.208, 197.635 328.055, 196.578 327.148 C 195.442 326.174, 194.980 326.051, 195.448 326.848 C 195.883 327.589, 198.298 329.502, 200.815 331.098 C 206.470 334.684, 204.729 334.879, 197.717 331.446 C 193.938 329.595, 193.152 329.414, 194.864 330.786 C 196.164 331.828, 198.864 333.260, 200.864 333.967 C 206.604 335.999, 207.556 337.124, 204.818 338.643 C 203.543 339.350, 200.700 339.991, 198.500 340.067 L 194.500 340.205 197.911 341.009 C 199.788 341.451, 202.038 341.604, 202.911 341.348 C 203.785 341.092, 202.726 341.864, 200.558 343.064 C 197.289 344.873, 195.582 345.151, 190.558 344.694 C 184.524 344.146, 184.516 344.148, 188.500 345.413 C 192.098 346.556, 192.249 346.727, 190 347.122 C 188.625 347.364, 185.938 347.235, 184.028 346.836 C 178.498 345.680, 179.270 346.732, 185.222 348.462 L 190.658 350.043 200.079 345.678 C 209.629 341.253, 219.898 337.422, 221.230 337.786 C 222.262 338.069, 234.084 335.249, 234.779 334.555 C 235.397 333.937, 230.550 334.682, 225.239 336.022 C 223.445 336.475, 222.196 336.492, 222.463 336.060 C 222.730 335.628, 225.098 334.696, 227.724 333.990 C 234.388 332.197, 235.237 331.019, 229.950 330.900 L 225.500 330.799 229.483 329.867 C 235.259 328.515, 235.730 327.372, 230.832 326.589 C 227.841 326.111, 226.962 325.641, 227.934 325.041 C 228.701 324.567, 230.899 324.434, 232.820 324.746 C 235.317 325.151, 236.108 324.983, 235.596 324.156 C 235.203 323.520, 233.896 322.966, 232.691 322.924 C 229.988 322.830, 222.896 320.181, 225.066 320.076 C 225.928 320.034, 229.234 320.481, 232.414 321.069 C 239.282 322.338, 240.888 321.646, 235.097 319.911 C 229.083 318.109, 230.095 316.940, 236.250 318.579 C 244.254 320.709, 246.369 320.086, 239 317.769 C 231.957 315.554, 232.350 314.095, 239.503 315.897 C 247.202 317.835, 248.437 316.663, 241.168 314.315 C 237.714 313.200, 237.879 313.156, 244 313.569 C 250.361 313.998, 250.417 313.981, 246.614 312.754 C 239.900 310.587, 242.368 309.505, 254.246 309.407 C 260.436 309.356, 263.475 309.558, 261 309.855 L 256.500 310.396 261.922 310.948 C 269.874 311.757, 269.814 313.956, 261.833 314.168 C 257.309 314.288, 256.621 314.451, 259.424 314.739 C 264.760 315.286, 278.632 313.349, 285.429 311.107 C 290.889 309.305, 291 309.307, 291 311.181 C 291 312.280, 289.692 313.817, 287.925 314.797 C 282.333 317.894, 281.348 319.094, 285.791 317.392 C 288.152 316.489, 290.271 315.938, 290.501 316.168 C 290.731 316.398, 285.049 319.920, 277.875 323.995 C 263.036 332.423, 259.446 334.877, 265.404 332.519 C 271.047 330.285, 271.013 331.437, 265.348 334.385 C 259.433 337.462, 260.041 337.754, 266.456 334.916 C 272.202 332.375, 273.612 333.116, 268.626 336.058 C 264.052 338.757, 263.988 339.321, 268.468 337.449 C 272.476 335.774, 273 335.701, 273 336.819 C 273 337.269, 271.538 338.408, 269.750 339.349 C 267.215 340.685, 267.050 340.921, 269 340.420 C 270.375 340.066, 275.100 339.429, 279.500 339.004 C 290.629 337.927, 306.272 333.859, 315.275 329.699 C 331.411 322.244, 351.823 305.763, 361.965 292 C 366.744 285.516, 370.861 278.228, 371.494 275.133 C 371.678 274.235, 372.168 272.639, 372.584 271.586 C 373.154 270.142, 373.015 269.873, 372.015 270.490 C 371.128 271.039, 370.930 270.923, 371.415 270.138 C 371.813 269.494, 372.493 269.187, 372.927 269.455 C 373.668 269.913, 377 261.077, 377 258.653 C 377 258.039, 375.835 259.250, 374.411 261.346 C 372.987 263.441, 371.574 264.907, 371.270 264.603 C 370.966 264.299, 372.243 261.827, 374.108 259.109 L 377.500 254.168 378.166 258.334 C 378.567 260.837, 378.669 259.467, 378.423 254.904 C 377.944 246.016, 374.138 230.173, 370.974 223.895 C 369.756 221.478, 367.176 217.548, 365.241 215.163 L 361.724 210.826 366.612 213.324 C 376.798 218.530, 383.990 226.985, 385.474 235.500 C 386.696 242.515, 391.380 249.119, 393.990 247.506 C 395.825 246.372, 397.243 236.409, 396.749 228.119 C 396.166 218.337, 393.716 211, 391.033 211 C 389.433 211, 389.522 210.118, 392.070 200.750 C 393.603 195.113, 395.331 189.254, 395.911 187.730 C 397.137 184.510, 400 172.488, 400 170.561 C 400 169.599, 398.824 169.378, 395.630 169.738 C 392.979 170.037, 390.990 169.792, 390.571 169.115 C 390.188 168.494, 390.513 168, 391.305 168 C 392.088 168, 395.602 166.671, 399.114 165.046 C 404.272 162.660, 404.971 162.083, 402.750 162.046 C 401.238 162.021, 400 162.398, 400 162.883 C 400 163.369, 399.212 163.993, 398.250 164.270 C 397.288 164.547, 395.712 165.097, 394.750 165.494 C 393.703 165.924, 393 165.769, 393 165.107 C 393 164.498, 393.675 164, 394.500 164 C 395.325 164, 396 163.499, 396 162.887 C 396 162.223, 394.810 161.948, 393.053 162.206 C 391.432 162.443, 390.302 162.320, 390.543 161.931 C 390.783 161.542, 388.929 160.917, 386.424 160.541 C 382.238 159.913, 381.719 159.510, 380.030 155.570 C 378.896 152.924, 376.865 150.462, 374.728 149.141 C 370.189 146.335, 361.514 146.442, 342 149.542 M 359.528 151.272 C 355.087 155.713, 355.083 158.283, 359.508 162.708 C 363.141 166.341, 364.454 166.535, 372 164.551 C 373.612 164.128, 373.108 164.663, 370.580 166.058 C 367.300 167.869, 365.832 168.098, 361.580 167.462 C 358.786 167.044, 353.486 166.671, 349.803 166.631 C 342.099 166.550, 341.839 166.192, 348.652 165.049 C 353.389 164.254, 353.413 164.233, 349.684 164.118 C 345.112 163.977, 341.870 165.499, 342.614 167.437 C 343.105 168.717, 347.754 169.461, 360.254 170.261 L 363.008 170.437 360.983 172.462 C 358.793 174.651, 352.409 175.133, 346.250 173.573 C 344.260 173.069, 343 173.124, 343 173.715 C 343 175.115, 353.342 177.382, 356.318 176.635 C 357.709 176.286, 360.219 174.846, 361.896 173.434 C 363.574 172.022, 367.678 169.502, 371.015 167.835 C 374.353 166.167, 377.819 163.679, 378.718 162.307 C 380.245 159.977, 380.229 159.581, 378.481 156.334 C 376.063 151.845, 371.909 148.932, 366.981 148.271 C 363.489 147.802, 362.666 148.134, 359.528 151.272 M 362.389 151.980 C 359.865 153, 358.864 155.162, 360.038 157.062 C 360.507 157.821, 361.028 158.230, 361.196 157.971 C 361.363 157.712, 361.995 156.600, 362.601 155.500 C 364.322 152.373, 368.392 152.412, 370.884 155.580 C 372.048 157.059, 373 157.799, 373 157.224 C 373 155.862, 367.195 150.981, 365.673 151.063 C 365.028 151.098, 363.550 151.511, 362.389 151.980 M 399.216 154.383 C 397.410 155.969, 396.109 157.443, 396.325 157.658 C 396.541 157.874, 402.398 157.139, 409.342 156.025 C 416.286 154.911, 423.624 154, 425.650 154 C 427.676 154, 429.013 153.680, 428.622 153.289 C 428.231 152.897, 422.193 152.335, 415.205 152.039 L 402.500 151.500 399.216 154.383 M 320.638 157.479 C 318.515 158.738, 315.590 161.040, 314.138 162.595 C 312.640 164.200, 312.418 164.664, 313.625 163.668 C 314.794 162.704, 318.619 160.370, 322.125 158.481 C 325.631 156.591, 327.600 155.078, 326.500 155.117 C 325.400 155.156, 322.762 156.219, 320.638 157.479 M 318.080 163.080 C 314.095 165.878, 311.076 168.409, 311.370 168.704 C 311.665 168.998, 314.198 167.557, 317 165.500 C 319.802 163.443, 322.333 161.999, 322.625 162.291 C 322.917 162.583, 320.610 164.702, 317.500 167 C 314.390 169.298, 312.084 171.417, 312.376 171.710 C 312.669 172.002, 314.616 170.912, 316.704 169.288 C 322.173 165.035, 323.863 164.279, 321.084 167.330 C 319.755 168.789, 316.684 170.943, 314.259 172.117 C 311.305 173.547, 310.182 174.582, 310.856 175.256 C 311.530 175.930, 313.997 174.693, 318.338 171.506 C 324.208 167.196, 324.854 166.365, 325.246 162.626 C 325.484 160.356, 325.599 158.386, 325.502 158.246 C 325.405 158.106, 322.065 160.282, 318.080 163.080 M 337.750 161.692 C 335.137 163.147, 333 164.667, 333 165.070 C 333 165.474, 335.137 165.122, 337.750 164.287 C 343.815 162.351, 351.111 161.105, 352.737 161.729 C 353.432 161.996, 354 161.764, 354 161.214 C 354 158.008, 343.832 158.307, 337.750 161.692 M 343.762 160.707 C 345.006 160.946, 346.806 160.937, 347.762 160.687 C 348.718 160.437, 347.700 160.241, 345.500 160.252 C 343.300 160.263, 342.518 160.468, 343.762 160.707 M 348.083 167.359 C 348.313 167.557, 350.750 167.978, 353.500 168.296 C 356.717 168.668, 357.787 168.565, 356.500 168.007 C 354.589 167.179, 347.216 166.612, 348.083 167.359 M 318.090 174.023 C 315.290 176.236, 313 178.517, 313 179.091 C 313 180.219, 316.422 177.946, 322 173.114 C 327.193 168.614, 323.990 169.359, 318.090 174.023 M 346.258 171.592 C 347.286 172.620, 357.019 172.932, 359.307 172.010 C 360.863 171.383, 359.202 171.108, 353.583 171.063 C 349.229 171.029, 345.933 171.266, 346.258 171.592 M 319.514 177.469 C 316.772 179.885, 314.842 182.175, 315.224 182.558 C 316.007 183.340, 326 175.318, 326 173.907 C 326 172.241, 324.537 173.044, 319.514 177.469 M 375.762 180.750 C 369.955 186.634, 362.629 198.851, 363.188 201.722 C 363.360 202.602, 365.300 199.769, 367.500 195.427 C 371.117 188.288, 382.875 173.903, 382.965 176.507 C 382.984 177.061, 380.598 180.667, 377.661 184.521 C 371.422 192.710, 369.953 195.275, 368.949 199.726 C 367.822 204.722, 369.632 203.625, 371.425 198.225 C 372.298 195.598, 374.846 191.230, 377.088 188.517 C 382.053 182.508, 384.324 178.288, 383.604 176.410 C 382.732 174.139, 381.752 174.681, 375.762 180.750 M 322.226 180.200 C 319.325 182.447, 317.175 184.509, 317.449 184.782 C 318.244 185.577, 328.995 177.801, 328.410 176.855 C 327.746 175.780, 328.370 175.443, 322.226 180.200 M 385.515 183.968 C 383.903 187.341, 381.910 190.640, 381.086 191.300 C 380.248 191.971, 380.597 190.846, 381.875 188.750 C 383.134 186.688, 383.918 185, 383.618 185 C 382.491 185, 378 192.543, 378 194.435 C 378 197.537, 385.625 189.549, 387.600 184.379 C 390.199 177.572, 388.712 177.279, 385.515 183.968 M 324.096 183.044 C 321.124 185.220, 319.324 186.987, 320.096 186.972 C 320.868 186.957, 323.268 185.607, 325.428 183.972 C 327.589 182.337, 329.753 181, 330.237 181 C 331.845 181, 329.884 183.048, 325.821 185.613 C 323.616 187.005, 322.085 188.419, 322.421 188.754 C 322.756 189.089, 325.062 187.932, 327.544 186.182 C 332.279 182.844, 333.001 182.522, 332.998 183.750 C 332.997 184.162, 330.952 185.792, 328.452 187.371 C 325.953 188.950, 324.145 190.478, 324.434 190.767 C 324.723 191.056, 326.759 190.102, 328.958 188.646 C 333.120 185.892, 335 185.354, 335 186.918 C 335 187.422, 333.212 188.660, 331.026 189.668 C 328.840 190.675, 327.040 191.814, 327.026 192.198 C 326.987 193.240, 332.152 191.206, 334.914 189.092 L 337.329 187.243 334.169 183.872 C 332.431 182.017, 331.007 180.162, 331.005 179.750 C 330.996 178.367, 329.533 179.065, 324.096 183.044 M 391.821 180 C 390.404 183.800, 387.730 197.064, 388.272 197.605 C 389.263 198.596, 393.181 184.398, 392.764 181.327 C 392.522 179.542, 392.175 179.053, 391.821 180 M 363.199 181.050 C 361.933 181.558, 358.405 182.078, 355.359 182.205 C 349.879 182.435, 349.844 182.456, 352.021 184.218 C 354.929 186.573, 362.283 186.509, 367.627 184.082 C 371.730 182.219, 374.118 180, 372.019 180 C 371.415 180, 369.251 180.839, 367.210 181.865 C 362.602 184.181, 356.934 185.241, 355.161 184.119 C 354.290 183.568, 355.623 183.099, 358.970 182.777 C 361.801 182.505, 364.631 181.769, 365.259 181.141 C 366.589 179.811, 366.316 179.799, 363.199 181.050 M 364.863 190.359 C 359.212 194.490, 355 198.450, 355 199.630 C 355 201.954, 356.190 201.204, 361.740 195.381 C 366.949 189.917, 368.185 187.929, 364.863 190.359 M 353.359 194.923 C 350.170 196.868, 348.218 199.022, 349.691 198.973 C 350.580 198.944, 357.807 193.068, 357 193.031 C 356.725 193.018, 355.087 193.869, 353.359 194.923 M 329 194.358 C 329 195.870, 335.404 198, 339.950 198 C 346.824 198, 346.345 196.416, 339.250 195.686 C 336.087 195.360, 332.488 194.795, 331.250 194.430 C 330.012 194.065, 329 194.033, 329 194.358 M 379.093 219.250 C 385.828 227.512, 387.121 228.123, 381.352 220.317 C 378.076 215.884, 378.418 215.072, 382.090 218.563 C 383.789 220.178, 386.461 224.313, 388.027 227.750 C 391.254 234.834, 392.549 235.759, 391.526 230.250 C 390.744 226.040, 387.113 219, 385.724 219 C 385.224 219, 383.679 218.106, 382.290 217.014 C 380.901 215.921, 379.399 215.253, 378.952 215.530 C 378.504 215.806, 377.856 215.575, 377.510 215.016 C 377.165 214.457, 376.417 214, 375.848 214 C 375.279 214, 376.740 216.363, 379.093 219.250 M 350.002 220.398 C 348.258 222.142, 348.916 224, 351.277 224 C 353.690 224, 358 221.463, 358 220.042 C 358 218.869, 351.229 219.171, 350.002 220.398 M 344.290 221.502 C 343.052 222.373, 341.071 222.821, 339.790 222.519 C 336.509 221.747, 334.200 223.462, 335.567 225.655 C 336.154 226.596, 337.362 227.826, 338.252 228.387 C 341.341 230.335, 347.621 225.225, 346.813 221.420 C 346.541 220.137, 346.212 220.148, 344.290 221.502 M 317.041 224.450 C 314.693 227.280, 294.912 237, 291.502 237 C 291.253 237, 291.477 235.875, 292 234.500 C 292.953 231.994, 292.228 231.235, 290.450 232.877 C 289.928 233.359, 287.025 234.546, 284 235.514 C 270.942 239.693, 266.738 244.011, 275.750 243.988 C 278.925 243.980, 281.904 243.173, 284.733 241.556 C 287.061 240.225, 289.225 239.555, 289.542 240.068 C 290.579 241.746, 299.242 241.061, 303.587 238.958 C 307.795 236.921, 315.680 229.335, 317.899 225.188 C 319.239 222.685, 318.812 222.317, 317.041 224.450 M 327.709 224.378 C 323.896 225.286, 323.172 225.772, 324.159 226.759 C 326.147 228.747, 331.767 228.304, 332.965 226.066 C 334.823 222.594, 334.984 222.646, 327.709 224.378 M 239.617 240.987 C 231.246 243.660, 224.131 250.962, 228.328 252.572 C 230.338 253.344, 234.365 251.497, 238.404 247.950 C 241.501 245.231, 246.785 238.890, 245.818 239.054 C 245.643 239.083, 242.853 239.953, 239.617 240.987 M 353.500 245.091 C 351.300 246.152, 348.386 246.834, 347.023 246.605 C 345.307 246.318, 343.508 247.103, 341.162 249.162 C 339.301 250.797, 335.803 253.093, 333.389 254.266 C 330.618 255.612, 329 257.062, 329 258.199 C 329 261.918, 335.669 259.204, 347.627 250.617 C 351.547 247.803, 355.597 244.964, 356.627 244.309 C 359.371 242.564, 358.061 242.891, 353.500 245.091 M 290.427 249.649 C 290.568 252.652, 290.172 252.995, 281.814 257.091 C 276.995 259.453, 273.219 261.552, 273.423 261.756 C 273.626 261.960, 277.511 260.257, 282.055 257.972 C 288.241 254.862, 291.183 253.919, 293.760 254.220 C 296.803 254.575, 296.995 254.470, 295.411 253.311 C 294.425 252.590, 293.057 252, 292.372 252 C 291.687 252, 290.936 250.762, 290.703 249.250 C 290.344 246.916, 290.302 246.977, 290.427 249.649 M 370.178 252.149 C 368.351 254.921, 367.054 257.387, 367.295 257.628 C 368.143 258.476, 374 250.908, 374 248.965 C 374 247.884, 373.887 247.024, 373.750 247.054 C 373.613 247.084, 372.005 249.376, 370.178 252.149 M 376.116 249.673 C 376.052 250.319, 374.425 252.910, 372.500 255.432 C 368.765 260.325, 368.456 261, 369.952 261 C 371.569 261, 377.162 252.044, 376.684 250.221 C 376.435 249.275, 376.180 249.028, 376.116 249.673 M 233.568 257.091 C 228.594 259.510, 227.784 260.343, 231.252 259.473 C 234.324 258.702, 239 259.570, 239 260.910 C 239 261.840, 216.074 273.313, 204.670 278.091 C 187.696 285.203, 168.297 303.186, 169.205 310.968 C 169.478 313.312, 169.909 313.512, 175 313.661 L 180.500 313.822 176.250 312.769 C 172.906 311.940, 172 311.261, 172 309.580 C 172 305.767, 174.780 303.014, 178.807 302.840 C 182.498 302.680, 182.498 302.680, 179.250 302.277 C 173.640 301.580, 174.651 300.419, 189.500 290.502 C 199.972 283.508, 240.448 262.649, 242.331 263.277 C 242.930 263.477, 237.924 266.270, 231.207 269.483 C 224.489 272.697, 219.173 275.506, 219.392 275.726 C 219.612 275.945, 223.776 274.134, 228.646 271.702 C 239.496 266.281, 244.400 264.632, 247.417 265.390 C 249.289 265.860, 249.632 266.473, 249.223 268.615 C 248.809 270.780, 247.333 271.889, 241.108 274.710 C 226.330 281.411, 204.015 292.349, 204.381 292.714 C 204.584 292.917, 213.694 288.861, 224.625 283.699 C 235.556 278.538, 245.957 273.742, 247.737 273.042 C 249.518 272.341, 250.726 271.366, 250.423 270.875 C 250.119 270.384, 250.155 269.086, 250.503 267.991 C 251.044 266.286, 252.096 265.978, 257.817 265.849 C 264.234 265.705, 264.136 265.672, 255.334 265.019 C 245.380 264.282, 242.108 262.870, 239.175 258.048 L 237.446 255.204 233.568 257.091 M 297 257.072 C 297 258.192, 269.246 271.875, 262.766 273.949 C 260.712 274.607, 258.015 274.822, 256.774 274.428 C 254.753 273.787, 254.661 273.887, 255.900 275.380 C 256.662 276.298, 257.033 277.300, 256.726 277.607 C 256.418 277.915, 257.067 279.067, 258.167 280.167 C 259.267 281.267, 260.463 281.870, 260.825 281.508 C 261.187 281.146, 260.700 280.411, 259.742 279.875 C 257.673 278.718, 257.441 277, 259.352 277 C 261.442 277, 281.595 268.353, 290.250 263.743 C 295.535 260.928, 298 259.040, 298 257.807 C 298 256.813, 297.775 256, 297.500 256 C 297.225 256, 297 256.482, 297 257.072 M 209.750 269.572 C 206.012 271.600, 206.239 272.445, 210 270.500 C 211.650 269.647, 213 268.735, 213 268.474 C 213 267.831, 212.893 267.867, 209.750 269.572 M 365.724 273.542 C 363.666 274.940, 361.424 276.012, 360.741 275.923 C 358.400 275.621, 356.667 276, 357.336 276.669 C 357.703 277.037, 357.259 278.162, 356.347 279.169 C 353.786 281.999, 356.236 281.336, 360.943 277.926 C 363.277 276.236, 365.404 275.071, 365.671 275.337 C 365.937 275.604, 363.610 277.702, 360.500 280 C 354.519 284.418, 353.606 286.648, 359.197 283.180 C 363.080 280.772, 368.451 275.240, 369.324 272.750 C 370.100 270.535, 370.172 270.519, 365.724 273.542 M 367.917 277.392 C 366.588 278.708, 363.813 281.440, 361.750 283.463 C 359.688 285.487, 358.013 287.673, 358.030 288.321 C 358.046 288.970, 359.833 287.475, 362 285 C 367.897 278.266, 366.804 281.065, 360.124 289.809 C 352.587 299.673, 341.461 310.385, 339.765 309.408 C 339.069 309.007, 338.838 309.052, 339.252 309.509 C 340.023 310.358, 337.314 314, 335.911 314 C 334.677 314, 324.931 320.264, 325.414 320.747 C 325.653 320.987, 328.920 319.501, 332.674 317.446 C 340.611 313.102, 352.658 301.814, 360.899 291 C 365.815 284.549, 371.635 275, 370.651 275 C 370.477 275, 369.246 276.076, 367.917 277.392 M 207.750 281.061 C 202.387 283.788, 198 286.244, 198 286.519 C 198 286.794, 202.500 284.760, 208 282 C 213.500 279.240, 218 276.761, 218 276.491 C 218 275.813, 218.562 275.562, 207.750 281.061 M 370.736 281.840 C 369.276 285.020, 366.669 289.395, 364.943 291.561 C 363.217 293.728, 360.638 297.525, 359.211 300 C 354.207 308.684, 347.461 316.271, 339.295 322.399 C 330.725 328.831, 313.267 339.581, 305.808 343.018 C 303.439 344.110, 302.625 344.738, 304 344.414 C 305.375 344.089, 309.425 342.514, 313 340.912 C 318.092 338.631, 318.989 338.434, 317.139 340 C 313.728 342.890, 315.858 342.457, 320.518 339.314 C 322.855 337.737, 323.913 337.348, 323.080 338.371 C 322.299 339.330, 319.691 341.269, 317.285 342.679 C 310.377 346.727, 312.963 346.462, 322.254 342.170 C 338.150 334.826, 351.592 324.358, 361.003 311.996 C 364.207 307.787, 367.748 302.354, 368.873 299.922 C 371.559 294.113, 376.153 279.820, 375.533 279.200 C 375.266 278.932, 374.825 279.341, 374.553 280.107 C 374.281 280.873, 372.872 284.875, 371.422 289 C 369.068 295.698, 362.750 307, 361.360 307 C 361.068 307, 362.480 304.046, 364.499 300.435 C 367.789 294.552, 374.446 277.112, 373.690 276.356 C 373.525 276.192, 372.196 278.659, 370.736 281.840 M 240 286.600 C 235.875 288.541, 229.214 291.502, 225.198 293.179 C 221.182 294.857, 218.068 296.401, 218.278 296.611 C 218.893 297.226, 248 284.399, 248 283.513 C 248 282.807, 248.353 282.671, 240 286.600 M 263.500 292.916 C 256.498 296.022, 215.188 309.659, 195.500 315.364 C 171.710 322.256, 153.607 328.645, 150.718 331.168 L 148.500 333.106 151 332.434 C 152.375 332.064, 162.794 328.467, 174.154 324.440 C 185.514 320.413, 203.514 314.410, 214.154 311.101 C 238.881 303.410, 260.392 295.913, 265.500 293.207 C 270.342 290.642, 269.049 290.454, 263.500 292.916 M 362.150 297.384 C 359.868 300.913, 358 304.080, 358 304.422 C 358 304.763, 356.809 306.842, 355.354 309.042 C 353.898 311.241, 352.931 313.265, 353.205 313.538 C 353.800 314.134, 357.223 309.137, 363.015 299.217 C 365.354 295.211, 367.050 291.716, 366.784 291.450 C 366.518 291.184, 364.433 293.854, 362.150 297.384 M 199.500 294.232 C 198.400 294.877, 194.125 296.882, 190 298.690 C 185.875 300.497, 183.175 301.971, 184 301.965 C 185.718 301.954, 204.023 293.196, 202.500 293.114 C 201.950 293.085, 200.600 293.588, 199.500 294.232 M 330 297.690 C 324.150 300.837, 322.875 301.148, 317.250 300.796 C 313.813 300.581, 311 300.703, 311 301.067 C 311 302.078, 319.239 305, 322.089 305 C 324.913 305, 337.357 301.024, 336.674 300.340 C 336.432 300.099, 333.229 300.599, 329.556 301.451 C 325.882 302.303, 322.116 302.962, 321.188 302.915 C 320.260 302.868, 321.750 302.274, 324.500 301.594 C 330.225 300.179, 335.060 297.837, 336.945 295.566 C 338.833 293.292, 337.311 293.757, 330 297.690 M 213 298.500 C 211.625 299.286, 210.950 299.929, 211.500 299.929 C 212.050 299.929, 213.625 299.286, 215 298.500 C 216.375 297.714, 217.050 297.071, 216.500 297.071 C 215.950 297.071, 214.375 297.714, 213 298.500 M 336.777 302.556 C 336.471 302.862, 332.774 304.611, 328.561 306.442 C 324.348 308.274, 320.841 310.161, 320.768 310.636 C 320.367 313.226, 307.045 319.975, 302.221 320.032 C 299.757 320.061, 299.664 320.188, 301.234 321.381 C 302.188 322.105, 302.691 322.976, 302.352 323.315 C 300.281 325.385, 317.008 317.752, 324.500 313.207 C 329.450 310.205, 334.735 307.017, 336.244 306.124 C 337.753 305.231, 338.990 303.938, 338.994 303.250 C 339 301.962, 337.760 301.574, 336.777 302.556 M 349.966 307.579 C 340.736 316.999, 321.400 329.200, 306.500 335.004 C 299.901 337.575, 294.073 341.191, 295.671 341.724 C 296.996 342.165, 311.368 336.859, 318.190 333.410 C 326.827 329.043, 340.167 319.901, 345.004 315.033 C 349.405 310.603, 356.532 302, 355.800 302 C 355.597 302, 352.972 304.510, 349.966 307.579 M 334.770 309.029 C 330.397 311.926, 325.430 316.623, 329 314.486 C 330.358 313.673, 338.909 307.331, 339.917 306.389 C 341.307 305.090, 338.690 306.432, 334.770 309.029 M 247.500 311 C 249.150 311.420, 251.850 311.765, 253.500 311.767 C 256.022 311.769, 255.863 311.638, 252.500 310.943 C 247.434 309.895, 243.341 309.942, 247.500 311 M 259.750 312.706 C 260.988 312.944, 263.012 312.944, 264.250 312.706 C 265.488 312.467, 264.475 312.272, 262 312.272 C 259.525 312.272, 258.512 312.467, 259.750 312.706 M 281.322 313.326 C 279.574 313.972, 277.807 314.842, 277.396 315.259 C 276.384 316.286, 283.249 313.955, 284.450 312.864 C 285.616 311.804, 285.328 311.846, 281.322 313.326 M 282 315.533 C 278.425 317.385, 275.782 318.922, 276.126 318.950 C 277.406 319.053, 287.840 314.067, 288.467 313.053 C 289.296 311.711, 289.619 311.588, 282 315.533 M 267 316 L 262.500 316.700 266.500 316.780 C 268.700 316.823, 271.400 316.473, 272.500 316 C 274.817 315.004, 273.404 315.004, 267 316 M 174.767 341.011 C 167.214 348.152, 157.314 356.673, 152.767 359.945 C 141.740 367.881, 139.815 369.436, 144 367.024 C 148.310 364.541, 149.789 364.435, 147.827 366.750 C 146.286 368.568, 142 375.782, 142 376.557 C 142 377.624, 144.425 376.834, 147.188 374.866 C 149.268 373.385, 149.811 372.502, 148.964 371.978 C 148.293 371.563, 148.066 370.701, 148.461 370.063 C 148.994 369.200, 149.526 369.192, 150.537 370.030 C 151.387 370.736, 152.490 370.825, 153.485 370.268 C 154.899 369.477, 154.856 369.180, 153.094 367.585 C 151.532 366.172, 151.344 365.422, 152.205 364.044 C 153.238 362.389, 153.394 362.394, 155.148 364.148 C 156.167 365.167, 157.563 365.986, 158.250 365.970 C 158.944 365.953, 158.721 365.486, 157.750 364.920 C 155.968 363.882, 155.280 360, 156.878 360 C 157.360 360, 158.315 360.675, 159 361.500 C 159.685 362.325, 160.977 362.982, 161.872 362.960 C 162.908 362.934, 162.499 362.377, 160.750 361.428 C 159.238 360.607, 158 359.527, 158 359.027 C 158 357.135, 160.043 356.980, 162.722 358.669 L 165.500 360.422 163.574 358.187 C 162.097 356.474, 161.922 355.678, 162.824 354.776 C 163.725 353.875, 164.280 353.880, 165.200 354.800 C 166.899 356.499, 168.491 356.296, 167.053 354.564 C 165.687 352.919, 166.642 350.539, 169.823 347.660 C 171.730 345.935, 171.963 345.930, 174.454 347.562 C 177.667 349.667, 187.800 352.133, 188.511 350.983 C 188.795 350.523, 186.601 349.844, 183.636 349.474 C 180.670 349.103, 176.983 347.973, 175.442 346.962 L 172.640 345.124 180.998 336.562 C 185.594 331.853, 189.162 328.006, 188.927 328.013 C 188.692 328.020, 182.320 333.869, 174.767 341.011 M 190.538 332.062 C 191.140 333.035, 199.905 336.433, 200.426 335.894 C 200.636 335.677, 198.389 334.551, 195.432 333.391 C 192.475 332.230, 190.273 331.632, 190.538 332.062 M 193.500 336.974 C 195.410 337.820, 201.785 338.391, 200.917 337.639 C 200.688 337.441, 198.475 337.011, 196 336.683 C 192.995 336.286, 192.165 336.383, 193.500 336.974 M 233.500 338.526 C 231.300 339.881, 229.950 340.990, 230.500 340.990 C 231.050 340.990, 233.300 339.881, 235.500 338.526 C 237.700 337.171, 239.050 336.062, 238.500 336.062 C 237.950 336.062, 235.700 337.171, 233.500 338.526 M 188.500 338.536 C 190.150 339.292, 192.175 339.896, 193 339.879 C 193.825 339.862, 192.925 339.241, 191 338.500 C 186.434 336.742, 184.638 336.768, 188.500 338.536 M 234.146 341.462 C 226.941 346.054, 226.348 346.923, 232.767 343.485 C 235.664 341.933, 238.532 340.064, 239.140 339.332 C 240.749 337.393, 240.095 337.672, 234.146 341.462 M 275 341.406 C 268.200 343.967, 266 344.956, 266 345.450 C 266 345.725, 267.238 345.445, 268.750 344.828 C 270.262 344.210, 273.750 342.903, 276.500 341.923 C 279.250 340.942, 280.825 340.128, 280 340.114 C 279.175 340.100, 276.925 340.681, 275 341.406 M 188.500 342.038 C 190.435 342.833, 200.759 343.373, 199.917 342.635 C 199.688 342.435, 196.575 342.034, 193 341.744 C 189.183 341.435, 187.326 341.556, 188.500 342.038 M 238.234 344.029 C 236.438 345.663, 235.341 347, 235.797 347 C 236.253 347, 237.919 345.650, 239.500 344 C 243.175 340.164, 242.466 340.180, 238.234 344.029 M 275 345.065 C 269.545 346.635, 269.215 346.841, 272.951 346.346 C 277.452 345.750, 285.769 343.119, 283 343.167 C 282.175 343.182, 278.575 344.035, 275 345.065 M 274.119 349.723 C 271.213 351.220, 269.338 352.613, 269.951 352.817 C 270.565 353.022, 271.680 352.680, 272.430 352.058 C 273.180 351.436, 275.527 350.061, 277.646 349.003 C 279.766 347.945, 281.028 347.062, 280.452 347.040 C 279.875 347.018, 277.026 348.225, 274.119 349.723 M 171 349.148 C 171 351.033, 175.160 353.035, 178.797 352.900 C 180.956 352.819, 180.695 352.614, 177.500 351.878 C 175.300 351.371, 172.938 350.205, 172.250 349.287 C 171.188 347.869, 171 347.848, 171 349.148 M 271.322 353.815 C 267.036 355.429, 265 358.191, 265 362.390 C 265 364.042, 268.867 368.343, 278.804 377.744 L 292.608 390.803 299.054 391.404 C 309.757 392.402, 310.217 392.358, 318.500 389.556 C 322.900 388.067, 327.588 386.545, 328.918 386.175 C 330.248 385.804, 331.506 384.990, 331.713 384.366 C 332.146 383.061, 315.827 373.797, 305.500 369.485 C 298.199 366.437, 294.347 363.229, 293.385 359.397 C 292.829 357.184, 292.568 357.144, 280.659 357.449 C 270.246 357.717, 268.787 357.569, 270.500 356.424 C 273.582 354.363, 276.556 352.054, 276 352.152 C 275.725 352.201, 273.620 352.949, 271.322 353.815 M 126.250 378.552 C 122.263 381.585, 119 384.287, 119 384.557 C 119 384.827, 122.375 382.507, 126.500 379.403 C 133.015 374.499, 134.784 372.942, 133.750 373.019 C 133.613 373.029, 130.238 375.519, 126.250 378.552 M 365.201 384.854 C 363.813 385.735, 364.238 390.638, 365.842 392.242 C 366.345 392.745, 368.049 393.009, 369.628 392.828 C 373.268 392.412, 373.992 388.992, 371.061 386.061 C 368.858 383.858, 367.283 383.534, 365.201 384.854 M 378.397 390.750 C 378.759 392.813, 379.330 396.637, 379.667 399.250 C 380.333 404.424, 381.438 405.377, 382.386 401.598 C 383.115 398.694, 382.213 393.491, 380.332 389.750 C 378.404 385.916, 377.619 386.321, 378.397 390.750 M 395 387.959 C 390.953 388.485, 393.594 388.726, 405 388.872 C 413.525 388.981, 424.083 389.708, 428.463 390.489 C 432.843 391.269, 436.630 391.703, 436.880 391.454 C 437.129 391.204, 437.146 390.993, 436.917 390.985 C 436.687 390.977, 434.700 390.300, 432.500 389.482 C 428.811 388.109, 430.169 388.033, 450 388.495 C 461.825 388.771, 475.100 389.266, 479.500 389.595 C 488.242 390.249, 512 389.192, 512 388.149 C 511.999 387.253, 401.809 387.073, 395 387.959 M 328.535 390.130 C 323.605 391.159, 318.880 392.733, 318.035 393.628 C 316.630 395.117, 316.788 395.201, 319.899 394.623 C 321.768 394.275, 327.746 393.699, 333.184 393.343 C 338.622 392.986, 343.287 392.344, 343.552 391.916 C 344.113 391.008, 340.040 387.939, 338.527 388.130 C 337.962 388.201, 333.466 389.101, 328.535 390.130 M 356 391.535 C 356 391.830, 356.740 393.200, 357.645 394.581 C 359.020 396.679, 359.102 397.717, 358.145 400.911 C 356.751 405.562, 356.737 406, 357.974 406 C 359.391 406, 362 400.523, 362 397.550 C 362 396.147, 361.100 394.100, 360 393 C 358.119 391.119, 356 390.343, 356 391.535 M 274.500 395.095 C 266.338 398.620, 265.720 399.106, 266.574 401.333 C 267.328 403.297, 271.151 403.494, 277.496 401.897 C 283.378 400.416, 285.704 397.840, 284.180 394.496 C 283.555 393.123, 282.696 392.016, 282.271 392.036 C 281.847 392.056, 278.350 393.432, 274.500 395.095 M 296.860 396.332 C 298.783 398.648, 307.937 403.150, 310.050 402.818 C 314.100 402.183, 312.346 400.445, 305 397.813 C 296.299 394.695, 295.360 394.524, 296.860 396.332 M 481.354 395.886 C 477.374 396.283, 474.460 397.177, 473.088 398.419 C 470.998 400.312, 470.947 400.312, 469.483 398.419 C 468.084 396.610, 467.938 396.600, 466.950 398.250 C 465.810 400.151, 463.369 400.601, 462.833 399.009 C 462.650 398.464, 460.475 399.362, 458 401.005 C 455.525 402.647, 452.600 404.047, 451.500 404.114 C 446.326 404.431, 456.398 405.775, 464.750 405.882 C 472.057 405.975, 474 406.301, 474 407.433 C 474 409.824, 470.552 410.231, 447.580 410.545 C 422.091 410.894, 392.025 412.576, 390.881 413.717 C 389.748 414.847, 420.251 414.253, 435.332 412.851 C 445.284 411.926, 448.907 411.926, 451.472 412.854 C 453.982 413.761, 459.449 413.805, 474.140 413.034 C 484.788 412.476, 497.663 412.015, 502.750 412.010 L 512 412 512 403.672 L 512 395.343 499.750 395.308 C 493.012 395.288, 484.734 395.548, 481.354 395.886 M 78.946 416.750 L 75.500 420.500 79.250 417.054 C 81.313 415.158, 83 413.471, 83 413.304 C 83 412.540, 82.154 413.260, 78.946 416.750 M 308 414.269 C 308 414.630, 308.927 417.278, 310.061 420.154 C 312.506 426.358, 312.037 429.193, 308.274 430.960 C 306.540 431.774, 305.995 432.441, 306.821 432.738 C 307.548 433, 309.236 432.188, 310.571 430.933 C 313.937 427.771, 313.905 421.616, 310.500 417 C 309.125 415.136, 308 413.907, 308 414.269 M 303.565 425.596 C 302.835 428.507, 304.716 431.684, 306.259 430.141 C 307.325 429.075, 306.279 423, 305.029 423 C 304.582 423, 303.924 424.168, 303.565 425.596 M 190.376 428.086 C 188.657 428.584, 186.695 429.662, 186.015 430.481 C 184.921 431.800, 185.336 431.802, 189.640 430.496 C 192.313 429.685, 194.613 429.017, 194.750 429.011 C 194.887 429.005, 195 428.550, 195 428 C 195 426.848, 194.622 426.855, 190.376 428.086" stroke="none" fill="#c2c2c2" fill-rule="evenodd"/></svg>
